<?xml version="1.0" encoding="UTF-8" standalone="no"?>
<svg
   width="1500"
   zoomAndPan="magnify"
   viewBox="0 0 1125.0002 900.00022"
   height="1200"
   preserveAspectRatio="xMidYMid"
   version="1.0"
   id="svg118"
   sodipodi:docname="vektoros-logo.svg"
   inkscape:version="1.4.2 (f4327f4, 2025-05-13)"
   xmlns:inkscape="http://www.inkscape.org/namespaces/inkscape"
   xmlns:sodipodi="http://sodipodi.sourceforge.net/DTD/sodipodi-0.dtd"
   xmlns="http://www.w3.org/2000/svg"
   xmlns:svg="http://www.w3.org/2000/svg">
  <sodipodi:namedview
     id="namedview118"
     pagecolor="#ffffff"
     bordercolor="#999999"
     borderopacity="1"
     inkscape:showpageshadow="2"
     inkscape:pageopacity="0"
     inkscape:pagecheckerboard="true"
     inkscape:deskcolor="#d1d1d1"
     showguides="false"
     inkscape:zoom="0.42886026"
     inkscape:cx="487.33823"
     inkscape:cy="572.44754"
     inkscape:window-width="2560"
     inkscape:window-height="1494"
     inkscape:window-x="-11"
     inkscape:window-y="-11"
     inkscape:window-maximized="1"
     inkscape:current-layer="svg118" />
  <defs
     id="defs38">
    <g
       id="g1" />
    <clipPath
       id="2f1c25a1c9">
      <path
         d="m 423,1022 h 165 v 54 H 423 Z m 0,0"
         clip-rule="nonzero"
         id="path1" />
    </clipPath>
    <clipPath
       id="135f15c4c9">
      <path
         d="M 488.14453,795.44141 928.625,970.52344 838.03906,1198.4297 397.55859,1023.3477 Z m 0,0"
         clip-rule="nonzero"
         id="path2" />
    </clipPath>
    <clipPath
       id="a7a5070fc1">
      <path
         d="M 488.14453,795.44141 928.625,970.52344 838.03906,1198.4297 397.55859,1023.3477 Z m 0,0"
         clip-rule="nonzero"
         id="path3" />
    </clipPath>
    <clipPath
       id="03a4ecd855">
      <path
         d="m 606,1059 h 59 v 32 h -59 z m 0,0"
         clip-rule="nonzero"
         id="path4" />
    </clipPath>
    <clipPath
       id="4ebb20bf0e">
      <path
         d="M 488.14453,795.44141 928.625,970.52344 838.03906,1198.4297 397.55859,1023.3477 Z m 0,0"
         clip-rule="nonzero"
         id="path5" />
    </clipPath>
    <clipPath
       id="81f44b693a">
      <path
         d="M 488.14453,795.44141 928.625,970.52344 838.03906,1198.4297 397.55859,1023.3477 Z m 0,0"
         clip-rule="nonzero"
         id="path6" />
    </clipPath>
    <clipPath
       id="d59e171ae3">
      <path
         d="m 714,1032 h 124 v 66 H 714 Z m 0,0"
         clip-rule="nonzero"
         id="path7" />
    </clipPath>
    <clipPath
       id="71a1779716">
      <path
         d="M 488.14453,795.44141 928.625,970.52344 838.03906,1198.4297 397.55859,1023.3477 Z m 0,0"
         clip-rule="nonzero"
         id="path8" />
    </clipPath>
    <clipPath
       id="4b3368dbd1">
      <path
         d="M 488.14453,795.44141 928.625,970.52344 838.03906,1198.4297 397.55859,1023.3477 Z m 0,0"
         clip-rule="nonzero"
         id="path9" />
    </clipPath>
    <clipPath
       id="5824fbb275">
      <path
         d="m 875,982 h 26 v 22 h -26 z m 0,0"
         clip-rule="nonzero"
         id="path10" />
    </clipPath>
    <clipPath
       id="996727153c">
      <path
         d="M 488.14453,795.44141 928.625,970.52344 838.03906,1198.4297 397.55859,1023.3477 Z m 0,0"
         clip-rule="nonzero"
         id="path11" />
    </clipPath>
    <clipPath
       id="016d26481a">
      <path
         d="M 488.14453,795.44141 928.625,970.52344 838.03906,1198.4297 397.55859,1023.3477 Z m 0,0"
         clip-rule="nonzero"
         id="path12" />
    </clipPath>
    <clipPath
       id="53ea1d609e">
      <path
         d="m 401,968 h 526 v 130 H 401 Z m 0,0"
         clip-rule="nonzero"
         id="path13" />
    </clipPath>
    <clipPath
       id="0b488bff45">
      <path
         d="M 488.14453,795.44141 928.625,970.52344 838.03906,1198.4297 397.55859,1023.3477 Z m 0,0"
         clip-rule="nonzero"
         id="path14" />
    </clipPath>
    <clipPath
       id="cb85562a0c">
      <path
         d="M 488.14453,795.44141 928.625,970.52344 838.03906,1198.4297 397.55859,1023.3477 Z m 0,0"
         clip-rule="nonzero"
         id="path15" />
    </clipPath>
    <clipPath
       id="0dd80e2605">
      <path
         d="m 445.39844,490.46875 h 614.62886 v 460.5 H 445.39844 Z m 0,0"
         clip-rule="nonzero"
         id="path16" />
    </clipPath>
    <clipPath
       id="632d1cb16b">
      <path
         d="M 377.46484,385 H 1146 V 792 H 377.46484 Z m 0,0"
         clip-rule="nonzero"
         id="path17" />
    </clipPath>
    <clipPath
       id="02f87826ae">
      <path
         d="m 377.46484,382.41797 h 770.99996 v 413.25 H 377.46484 Z m 0,0"
         clip-rule="nonzero"
         id="path18" />
    </clipPath>
    <clipPath
       id="2c60209fe7">
      <path
         d="m 357,385 h 13.78906 V 746.16797 H 357 Z m 0,0"
         clip-rule="nonzero"
         id="path19" />
    </clipPath>
    <clipPath
       id="5261a18b6e">
      <path
         d="m 354.28906,382.41797 h 16.5 v 363.75 h -16.5 z m 0,0"
         clip-rule="nonzero"
         id="path20" />
    </clipPath>
    <clipPath
       id="a1ba1cac0e">
      <path
         d="m 357,385 h 16.78906 V 738.66797 H 357 Z m 0,0"
         clip-rule="nonzero"
         id="path21" />
    </clipPath>
    <clipPath
       id="da26d17143">
      <path
         d="m 354.28906,382.41797 h 19.5 v 356.25 h -19.5 z m 0,0"
         clip-rule="nonzero"
         id="path22" />
    </clipPath>
    <clipPath
       id="fcede0cb27">
      <path
         d="m 357,385 h 18.28906 V 731.91797 H 357 Z m 0,0"
         clip-rule="nonzero"
         id="path23" />
    </clipPath>
    <clipPath
       id="6d7f2f5016">
      <path
         d="m 354.28906,382.41797 h 21 v 349.5 h -21 z m 0,0"
         clip-rule="nonzero"
         id="path24" />
    </clipPath>
    <clipPath
       id="0d08e3b191">
      <path
         d="m 369.44922,385 h 8.25 v 340.91797 h -8.25 z m 0,0"
         clip-rule="nonzero"
         id="path25" />
    </clipPath>
    <clipPath
       id="af2ad0ef3a">
      <path
         d="m 369.44922,382.41797 h 8.25 v 343.5 h -8.25 z m 0,0"
         clip-rule="nonzero"
         id="path26" />
    </clipPath>
    <clipPath
       id="2fd75f59dc">
      <path
         d="m 372,725 h 6 v 6 h -6 z m 0,0"
         clip-rule="nonzero"
         id="path27" />
    </clipPath>
    <clipPath
       id="303d643541">
      <path
         d="m 371.00391,728.76172 3.39062,-5.3086 3.16016,2.01954 -3.39063,5.30859 z m 0,0"
         clip-rule="nonzero"
         id="path28" />
    </clipPath>
    <clipPath
       id="95272f392c">
      <path
         d="m 372.69531,726.11328 4.85156,-0.63281 -3.38281,5.30078 z m 0,0"
         clip-rule="nonzero"
         id="path29" />
    </clipPath>
    <clipPath
       id="c0ab909953">
      <path
         d="m 0.480469,0.28125 h 5.28125 v 5.519531 h -5.28125 z m 0,0"
         clip-rule="nonzero"
         id="path30" />
    </clipPath>
    <clipPath
       id="8d6c3480ff">
      <path
         d="M -0.996094,3.761719 2.394531,-1.546875 5.554688,0.472656 2.164062,5.78125 Z m 0,0"
         clip-rule="nonzero"
         id="path31" />
    </clipPath>
    <clipPath
       id="dfe8e307a6">
      <path
         d="M 0.695312,1.113281 5.546875,0.480469 2.164062,5.78125 Z m 0,0"
         clip-rule="nonzero"
         id="path32" />
    </clipPath>
    <clipPath
       id="fa3ef3d28c">
      <rect
         x="0"
         width="6"
         y="0"
         height="6"
         id="rect32" />
    </clipPath>
    <clipPath
       id="21cb8f4731">
      <path
         d="m 222,718 h 231 v 311 H 222 Z m 0,0"
         clip-rule="nonzero"
         id="path33" />
    </clipPath>
    <clipPath
       id="a6701e090a">
      <path
         d="M 154.41406,965.87109 380.64062,718.45703 523.44531,849.03125 297.21484,1096.4453 Z m 0,0"
         clip-rule="nonzero"
         id="path34" />
    </clipPath>
    <clipPath
       id="94a9a2be00">
      <path
         d="M 154.41406,965.87109 380.64062,718.45703 523.44531,849.03125 297.21484,1096.4453 Z m 0,0"
         clip-rule="nonzero"
         id="path35" />
    </clipPath>
    <clipPath
       id="9d795d42f5">
      <path
         d="m 342,951 h 34 v 60 h -34 z m 0,0"
         clip-rule="nonzero"
         id="path36" />
    </clipPath>
    <clipPath
       id="580f3246df">
      <path
         d="M 154.41406,965.87109 380.64062,718.45703 523.44531,849.03125 297.21484,1096.4453 Z m 0,0"
         clip-rule="nonzero"
         id="path37" />
    </clipPath>
    <clipPath
       id="27176da93c">
      <path
         d="M 154.41406,965.87109 380.64062,718.45703 523.44531,849.03125 297.21484,1096.4453 Z m 0,0"
         clip-rule="nonzero"
         id="path38" />
    </clipPath>
  </defs>
  <g
     fill="#000000"
     fill-opacity="1"
     id="g82"
     transform="translate(-222.87891,-382.64453)">
    <g
       transform="translate(382.67744,962.26653)"
       id="g81">
      <g
         id="g80" />
    </g>
  </g>
  <g
     id="g2"
     transform="translate(8.7684437,8.63867)">
    <g
       clip-path="url(#2f1c25a1c9)"
       id="g41"
       transform="translate(-131.94018,-298.70109)">
      <g
         clip-path="url(#135f15c4c9)"
         id="g40">
        <g
           clip-path="url(#a7a5070fc1)"
           id="g39">
          <path
             fill="#ffffff"
             d="m 477.17578,1054.6289 c -6.70703,-2.6641 -13.625,-5.75 -20.59766,-9.0195 l 3.26563,-7.0586 c 6.875,3.1914 13.67969,6.1484 20.28516,8.8594 z m 13.67188,5.4336 2.64843,-7.3008 c 7.30078,2.6524 14.23828,4.9492 20.98828,6.8828 l -2.17968,7.4844 c -6.82422,-2.168 -14.06641,-4.5469 -21.40235,-7.2109 z M 443.3125,1039.375 c -6.625,-3.3047 -13.32031,-6.8398 -19.9375,-10.4727 l 3.80469,-6.8437 c 6.49609,3.6289 13.09765,7.0859 19.61328,10.3437 z m 83.3125,31.4414 1.78516,-7.6406 c 7.11718,1.6484 14.30468,2.9023 21.55859,3.7656 l -0.82031,7.5234 c -7.55469,-0.8632 -15.04297,-2.1289 -22.46485,-3.7929 z m 37.31641,4.8945 0.11328,-7.8515 c 7.22656,0.2031 14.39843,-0.3321 21.51953,-1.5938 l 1.43359,7.6289 c -7.61328,1.3321 -15.28125,1.8907 -23.00781,1.6719 z m 0,0"
             fill-opacity="1"
             fill-rule="nonzero"
             id="path39" />
        </g>
      </g>
    </g>
    <g
       clip-path="url(#03a4ecd855)"
       id="g44"
       transform="translate(-131.94018,-298.70109)">
      <g
         clip-path="url(#4ebb20bf0e)"
         id="g43">
        <g
           clip-path="url(#81f44b693a)"
           id="g42">
          <path
             fill="#ffffff"
             d="m 640.47266,1084.0781 2.86718,-7.2148 c 6.9375,2.5312 13.98438,4.6914 21.14844,6.4844 l -1.92969,7.5859 c -7.48437,-1.8906 -14.84765,-4.1758 -22.08593,-6.8555 z m -13.94532,-6.0039 c -7.11328,-3.3945 -13.68359,-7.6367 -19.71093,-12.7226 l 5.05468,-5.8828 c 5.52735,4.664 11.5586,8.5468 18.08594,11.6562 z m 0,0"
             fill-opacity="1"
             fill-rule="nonzero"
             id="path41" />
        </g>
      </g>
    </g>
    <g
       clip-path="url(#d59e171ae3)"
       id="g47"
       transform="translate(-131.94018,-298.70109)">
      <g
         clip-path="url(#71a1779716)"
         id="g46">
        <g
           clip-path="url(#4b3368dbd1)"
           id="g45">
          <path
             fill="#ffffff"
             d="m 715.17187,1097.4805 -0.43359,-7.7344 c 7.3125,-0.4414 14.53125,-1.5117 21.65625,-3.2109 l 1.79688,7.5625 c -7.57032,1.8164 -15.2461,2.9414 -23.01954,3.3828 z m 37.6211,-7.6446 -2.4375,-7.3164 c 6.97656,-2.4336 13.76953,-5.3047 20.3789,-8.6093 l 3.41407,6.957 c -6.91016,3.457 -14.01953,6.4492 -21.32032,8.9844 z m 34.47265,-16.1171 -3.88281,-6.7266 c 6.07422,-3.5156 12.25781,-7.4063 18.80469,-11.9024 l 4.39844,6.3829 c -6.6211,4.6796 -12.96875,8.6718 -19.32032,12.2461 z m 31.52344,-20.8868 -4.61328,-6.2578 c 5.50781,-4.0781 11.34375,-8.5664 17.99219,-13.7344 l 4.83984,6.1016 c -6.61719,5.3047 -12.53906,9.8008 -18.10937,13.9336 z m 0,0"
             fill-opacity="1"
             fill-rule="nonzero"
             id="path44" />
        </g>
      </g>
    </g>
    <g
       clip-path="url(#5824fbb275)"
       id="g50"
       transform="translate(-131.94018,-298.70109)">
      <g
         clip-path="url(#996727153c)"
         id="g49">
        <g
           clip-path="url(#016d26481a)"
           id="g48">
          <path
             fill="#ffffff"
             d="m 880.53125,1003.7383 -4.77344,-6.07033 c 7.79297,-6.05078 14.5,-10.94531 20.55469,-14.92969 l 4.28125,6.46484 c -5.875,3.84375 -12.45313,8.625 -20.0625,14.53518 z m 0,0"
             fill-opacity="1"
             fill-rule="nonzero"
             id="path47" />
        </g>
      </g>
    </g>
    <g
       clip-path="url(#53ea1d609e)"
       id="g53"
       transform="translate(-131.94018,-298.70109)">
      <g
         clip-path="url(#0b488bff45)"
         id="g52">
        <g
           clip-path="url(#cb85562a0c)"
           id="g51">
          <path
             fill="#ffffff"
             d="m 410.70312,1021.4844 c -5.43359,-3.2461 -8.78515,-5.5391 -9.64843,-5.8828 l 4.23828,-6.668 c 0.86328,0.3437 4.08984,2.6289 9.41015,5.7461 z m 190.96485,48.2109 -2.76172,-7.2383 c 3.28906,-1.2734 6.45703,-2.7968 9.50391,-4.5742 4.66406,-2.6992 8.875,-5.4101 12.60156,-8.0625 l 4.49609,6.3399 c -3.85156,2.6445 -8.33203,5.625 -13.19922,8.4101 -3.39843,2.0235 -6.94531,3.7305 -10.64062,5.125 z m 75.42578,24.3867 1.57031,-7.7304 c 3.48828,0.6757 7.15235,1.3398 10.95313,1.9726 3.79687,0.6328 7.24609,1 10.87109,1.2305 l -0.53906,7.7617 c -4.03516,-0.3516 -7.77735,-0.7109 -11.57813,-1.3437 -3.80078,-0.6329 -7.67968,-1.1719 -11.27734,-1.8907 z m -80.84766,-40.4882 c -2.35156,-3.543 -4.10937,-7.3594 -5.26172,-11.4493 -0.97656,-3.539 -1.33984,-7.1367 -1.09765,-10.7968 l 7.72656,0.5273 c -0.15234,2.7969 0.14453,5.5469 0.89844,8.25 0.93359,3.2656 2.33594,6.3164 4.21484,9.1484 z m 46.8711,-13.5743 -6.26563,-4.6211 c 1.37891,-1.6171 2.44531,-3.4218 3.19531,-5.414 0.7461,-1.9922 1.13282,-4.0508 1.16016,-6.1758 -0.14453,-1.1719 -0.44922,-2.2969 -0.91406,-3.3789 -0.46485,-1.082 -1.07031,-2.0781 -1.81641,-2.9883 -0.74609,-0.9102 -1.60547,-1.6992 -2.57812,-2.3672 -0.96875,-0.664 -2.01563,-1.1836 -3.13282,-1.5547 -2.75781,-1.1289 -5.625,-1.7968 -8.60156,-2 l 0.60938,-7.7343 c 3.83203,0.2734 7.52734,1.1406 11.07812,2.6054 0.88672,0.3203 1.75,0.7031 2.58203,1.1485 0.83594,0.4414 1.63282,0.9414 2.39844,1.5 0.76172,0.5546 1.48438,1.164 2.16016,1.8203 0.67968,0.6601 1.30468,1.3593 1.88672,2.1093 0.57812,0.7461 1.10156,1.5274 1.5664,2.3477 0.46875,0.8242 0.87891,1.6719 1.22656,2.5508 0.34766,0.8789 0.63282,1.7773 0.85157,2.6953 0.22265,0.918 0.3789,1.8477 0.46875,2.7891 0.0312,3.0234 -0.45703,5.9609 -1.46094,8.8125 -1.00391,2.8515 -2.46484,5.4453 -4.38672,7.7812 z m -42.69141,-17.4297 -6.85547,-3.7695 c 1.79688,-3.2734 4.13281,-6.1055 7.00781,-8.4883 3.10547,-2.5312 6.59375,-4.3047 10.46875,-5.3203 l 2.17188,7.461 c -2.85938,0.6992 -5.44531,1.9531 -7.76172,3.7656 -2.07031,1.8047 -3.75,3.9219 -5.03125,6.3515 z m 248.13672,7.0352 -4.87891,-6.1133 8.72657,-7.1406 c 3.34765,-2.8477 6.33203,-5.4219 9.77343,-7.9805 l 4.83985,6.1016 -9.71875,7.957 z m 66.62891,-48.98828 -3.46875,-6.9336 c 3.90625,-1.99218 7.9375,-3.6914 12.08984,-5.09375 l 2.51562,7.4336 c -3.82812,1.24219 -7.54296,2.77344 -11.13671,4.59375 z m 0,0"
             fill-opacity="1"
             fill-rule="nonzero"
             id="path50" />
        </g>
      </g>
    </g>
    <path
       fill="#ffffff"
       d="m 753.54029,527.11141 c -7.80859,6.80469 -11.30859,0.125 -15.71484,-0.0117 0.21094,-1.46093 -0.27734,-2.92187 -2.61328,-4.40234 -0.45313,0.75391 -0.55078,2.22266 -1.96094,3.27734 0.0898,-0.41015 -0.46094,-2.60547 -2.40625,-2.12109 v -1.09766 h -1.19922 c 1.39844,6.61328 -8.10937,5.66016 -9.15234,11.57813 4.26172,-4.10938 6.17969,2.73047 9.15234,0.0625 0.64063,2.88672 0.97266,5.34765 0,8.96484 13.32422,2.34766 4.80078,-3.01953 13.59766,-6.78125 0.0117,0.62891 -0.11328,1.24219 1.45703,2.26563 -0.36719,-1.46875 3.88281,-9.97266 5.52344,-5.73828 3.32812,-0.33204 9.03125,1.18359 5.84765,-4.57032 h 1.09766 c 0.14062,-1.87109 0.0312,-1.40625 -3.62891,-1.42578"
       fill-opacity="1"
       fill-rule="nonzero"
       id="path53" />
    <path
       fill="#ffffff"
       d="m 623.6067,382.73251 c -4.00391,1.6914 1.05469,-0.27735 1.07812,3.60546 0.17579,-0.41015 1.77344,-0.78125 1.4336,-2.4414 h 3.33984 c -0.1914,-0.89453 0.69531,-2.125 2.48438,-3.52735 -1.69532,-1.49609 -3.86719,-0.71093 -5.88282,1.125 l -1.26171,-2.34765 c -0.65235,0.38281 -1.55079,1.78906 -1.19141,3.58594"
       fill-opacity="1"
       fill-rule="nonzero"
       id="path54" />
    <path
       fill="#ffffff"
       d="m 628.33717,377.03719 c 3.02344,-1.32812 -2.44141,-4.80468 -3.65235,-1.13672 h 2.32422 v 2.36329 l 1.32813,-1.22657"
       fill-opacity="1"
       fill-rule="nonzero"
       id="path55" />
    <path
       fill="#ffffff"
       d="m 742.14186,230.21688 c 7.46875,5.57422 6.54687,-4.37109 4.33984,-6.71094 -7.21484,-3.98047 -7.88672,3.39453 -4.33984,6.71094"
       fill-opacity="1"
       fill-rule="nonzero"
       id="path56" />
    <g
       clip-path="url(#0dd80e2605)"
       id="g57"
       transform="translate(-131.94018,-298.70109)">
      <path
         fill="#ffffff"
         d="m 864.00781,594.92578 c -1.22265,-0.0586 -3.5039,0.44531 -5.46484,-1.11328 3.13672,-0.49609 6.33203,-2.46094 7.44531,2.08203 z M 661.48047,721.14453 c 0.19922,0.0195 0.0664,-0.10937 0.4375,0.39453 z m -1.4336,15.50781 c -0.41406,-0.65625 -0.51562,-1.82812 -1.74609,-2.72265 0.51953,0.39843 2.17969,0.32031 1.74609,2.72265 z m -17.37109,2.70313 -0.66016,-0.65235 0.6836,0.63282 z m 417.29302,-53.40235 c -2.7774,-9.84765 -13.4219,4.01954 -19.6211,-6.30078 -13.7891,6.52735 -15.4414,-10.98437 -17.793,-23.08203 -0.2969,-1.52734 -2.3477,-1.85547 -3.1016,-0.49609 -7.3008,13.10156 -22.38669,8.41406 -13.8164,0.13281 8.9453,1.03516 7.418,-3.60937 7.9297,-9.28516 -8.8477,-9.24609 -12.8047,11.67969 -20.69921,-6.49609 7.77341,-2.46484 -6.3125,-13.50781 2.37109,-14.72656 -0.45703,-1.81641 -1.82031,-6.52344 -1.25,-9.27344 -3.64062,1.68359 -4.71484,-12.17969 -9.20703,-9.16797 -9.19141,-20.69922 -20.91016,-42.19922 -32.10156,-57.34375 -1.17578,-1.58594 -1.35157,-3.71484 -0.42578,-5.45703 4.72265,-8.91016 3.19921,-18.70703 2.6914,-26.28516 8.15235,-8.82421 -1.91406,-14.88671 0.36328,-17.97265 -3.52734,-0.80469 -2.19531,-1.91406 -5.75781,1.16406 -0.12891,-3.21484 -5.16406,-2.69141 -4.55469,-6.59375 -17.35937,2.59375 2.59375,-8.80469 -23.17578,-2.22656 -1.5,0.38281 -2.32812,1.90234 -2.05078,3.42187 0.20313,1.08985 -0.0508,2.30078 -1.30469,3.25 2.20313,2.08203 3.32422,4.52735 6.82813,5.7461 -1.29688,0.82422 -3.03516,3.28515 -3.41797,5.76172 4.67187,0.60937 -0.66016,5.23828 -4.3125,1.13281 1.53125,-0.98047 0.82031,-3 -1.23047,-4.78516 -4.9375,5.3711 0.91016,12.09766 -9.24609,10.35938 0.29687,4.57812 -2.72266,6.75 -3.25391,11.21484 -0.45312,-0.42578 -1.03906,-0.89453 -2.26562,-2.26953 l -2.13672,3.33203 c -0.50391,-3.41406 2.5,-8.35156 -3.54688,-10.10156 l -1.33594,3.52734 h 1.27344 v 2.14063 h -1.04687 v -1.16407 c -2.4375,-0.26562 -1.25782,2.60157 0.96875,5.82422 -0.69922,0.0664 -3.76953,0.32813 -3.14063,-2.53125 -1.78515,2.9961 -11.01953,10.45313 -5.97656,12.875 -1.04688,0.51563 -2.21484,3.51563 -4.58594,3.32813 13.60547,18.61719 -32.75781,9.8125 -8.94922,0.0664 -8.33593,-6.3164 -22.61328,-9.48437 -10.53906,5.63282 -1.03125,1.23437 -1.0625,4.92187 -0.96484,6.98437 11.64843,-0.87109 3.07422,8.63281 9.03125,12.46094 -2.25,1.15234 -4.21485,0.32422 -7.76953,1.09766 0.58593,-0.51954 0.55859,-2.58985 2.48828,-2.14063 l -2.65235,-2.55859 c -0.51953,1.08984 -1.6914,1.39062 -3.02734,1.14062 -1.74219,-0.32031 -3.51953,0.38672 -4.33594,1.96485 -12.74219,24.58593 -4.39453,5.48046 2.86328,25.3125 -1.99218,-1.50391 -11.48047,1.13671 -14.72656,-3.29688 -2.15625,0.14453 -5.68359,0.0352 -8.10937,-1.13281 -1.84375,5.67187 0.0781,6.11328 5.84765,8.2539 6.38281,-3.85937 5.75391,17.17579 -9.18359,1.8125 l -1.17188,2.33594 c -0.82031,-2.02734 -5.33984,-0.70703 -4.3789,-4.375 -8.52344,-10.04297 2.29297,-15.83984 -13.6875,-18.21094 h 1.17187 v -1.26562 h -2.32422 v -1.16406 c -2.33593,0.80078 -6.3789,-2.66797 -3.26172,-5.51172 -0.59765,-0.0898 -1.42187,0.5 -2.36328,-0.97656 2.28907,-1.91016 7.03907,5.20703 7.94922,2.29296 3.64453,2 16.72266,6.07032 18.08594,2.09375 6.48047,8.39063 22.96484,-6.71484 18.25391,-16.07812 h -1.16407 v -2.38672 c -1.04687,1.97656 -2.69531,0.55859 -2.25781,-2.17969 -4.47656,-0.48828 -7.71484,-1.67578 -13.84375,-4.71484 v 1.07422 c -7.24219,-6.80469 -19.67187,-5.92578 -28.38672,-5.35938 0.125,-0.0117 -0.6289,-3.6289 -2.24219,-1.23047 -7.58593,-10.53906 -1.93359,1.90625 -9.1875,-4.52734 0.23047,6.14063 -0.70703,2.71484 -5.15234,2.33203 l 0.875,-3.61719 c -0.34766,0.54297 -2.33203,0.17188 -3.63281,0.27344 0.84765,-0.52344 2.05859,-3.02734 0,-4.32031 0.35156,1.13672 4.0039,-3.58203 1.02734,-3.67188 0.35156,-1.93359 -1.75781,-1.29296 -4.58984,-0.0625 0.45703,-3.82031 -5.13672,-4.53125 -6.96485,1.15625 0.57032,-13.92187 -5.27343,-5.3164 -5.95703,1.10938 -1.27343,-1.29688 -2.375,-3.93359 -2.05468,-6.79297 h -1.03125 c 4.30859,-3.58984 -10.9961,-0.70312 -3.95313,2.33594 -2.23437,1.89453 -5.15234,-2.64453 -5.60937,3.41406 h -1.29688 l 1.25781,1.26172 -2.16797,2.10156 -1.17187,-2.26562 c -2.59766,1.58593 0.86328,5.8164 -4.69922,3.49218 v 1.03516 c -3.34766,-3.39062 -6.84375,3.83984 -4.57422,8.05078 -0.9375,-1.30469 -3.66797,-4.05469 -4.49609,0.0195 l -1.20703,-2.34375 c -2.15625,1.4375 -0.78516,4.02735 -0.11328,6.83594 -3.30079,-7.49609 -2.73438,6.69531 -4.40235,-2.16406 -1.20312,0.4414 -1.60547,2.70703 -1.34765,4.62109 -3.8711,-1.74609 -3.67579,13.27344 -7.89454,6.70703 -2.3789,1.44532 -0.41406,5.08594 -2.24218,7.8711 v -5.54297 c -1.01563,2.1914 -2.875,0.28906 -4.98438,2.65625 0.73047,0.16015 2.66406,-0.46875 2.46875,1.99609 l -1.07031,-1.14844 c -3.67969,1.47657 -6.46484,0.56641 -0.0937,4.69922 -1.20703,-1.20312 -7.65625,2.77344 -2.32813,2.51563 0.0977,4.20703 -7.78125,2.61719 -10.3789,7.82422 1.55859,0.96484 0.96094,2.07422 -0.69141,2.33984 -0.61719,0.0977 -0.90625,0.80859 -0.51953,1.29688 0.73438,0.9414 1.60938,1.79296 2.4375,0.16796 v 1.92969 h -3.51562 c 0.0469,0.58203 -0.3125,1.3086 1.125,2.35547 -2.27344,1.70703 -4.21485,1.89844 -4.51954,6.75781 -0.14843,-0.19922 -0.45312,-0.3789 -0.69531,-0.71875 -0.34765,-0.49218 -1.10937,-0.3789 -1.38281,0.16407 -0.28125,0.5625 -0.47656,1.21875 -0.34375,1.94921 1.92578,-0.71875 2.00391,3.76954 -1.07813,3.30469 0,1.03516 0.48829,3.82422 -2.33203,3.42578 v 1.28125 c 2.625,0.22266 0.60938,3.72266 -1.64453,2.10938 -1.11328,-0.79688 -2.59375,-1.04688 -3.74609,-0.3125 -0.71094,0.44531 -1.58594,0.69922 -2.6875,0.41015 0.26172,1.9336 -1.35938,6.28125 -4.58594,5.66407 v 3.30468 c -1.08203,-1.35937 -1.46094,-0.83203 -3.39844,1.3125 -1.45312,-2.22656 -1.4375,0.082 -4.66797,1.13672 v 2.20313 c -0.41015,-0.30078 -0.74218,-1.29297 -2.45703,-1.03516 1.48828,0.55078 1.94141,4.27344 -0.9375,1.1211 -0.625,2.36328 -6.99609,-1.05469 -3.64062,4.60937 -9.3086,-1.66406 -3.11328,-0.13672 -10.16406,4.39063 v -2.04297 c -0.61719,0.0273 -1.24219,-0.26953 -2.35157,1.12109 -1.13281,-2.46875 -6.57812,0.33984 -1.17578,2.46875 0.004,2.38672 -7.33203,0.40234 -3.48828,5.51172 l -2.32812,-1.09766 c -1.6211,3.61719 7.69531,7.28125 0,4.4961 -0.0586,1.70703 -0.0547,4.17578 2.28515,5.91015 l -1.10937,1.03125 c -1.15235,-2.42968 -3.66797,0.73828 -0.39063,2.36328 -4.35937,-0.66015 0.19141,5.44141 4.65625,2.7461 -1.57812,1.57422 -2.08594,1.94922 -4.40625,4.26562 l 2.31641,2.23438 c -3.28516,-0.51172 -10.01953,1.53125 -6.74219,7.14453 0.51563,-1.85938 5.61328,-6.125 4.46484,-0.24609 -1.76171,-0.15235 -0.5664,0.63671 -2.05468,3.21484 v -1.08984 c -3.3125,2.94531 -0.69141,9.01171 4.38281,9.42578 l -2.39453,2.24218 c 0.68359,-0.0742 2.51172,2.51954 3.5625,0.22657 v 2.16797 c 2.42187,-0.16797 5.40625,0.64062 8.14453,-1.03907 v 1.10157 c 16.49219,-16.16016 10.89453,-3.26954 17.11328,-9.80469 0.61328,-7.89844 6.53125,-13.97656 4.60547,-7.84766 -0.38281,1.21485 0.0859,2.5586 1.16016,3.23047 0.78906,0.49609 1.62109,1.14844 2.30859,1.61719 -0.13281,0.24219 -0.76953,0.58594 -2.16016,2.41015 h 0.0274 v 10.33204 h 1.16797 v 2.48828 c 3.99609,-4.04688 -1.16016,7.98437 2.21484,10.07031 -1.18359,0.5625 -2.57422,4.82031 1.13672,4.68359 3.77734,8.79688 -5.08594,22.32422 11.82812,20.64063 0.19532,-8.03516 -1.625,-4.33203 4.69532,-8.26563 h -1.14454 c 2.85547,-3.85547 5.96094,1.32422 10.26563,0.1875 -0.51953,-4.70703 3.03906,-8.11718 4.58984,-12.75 h -1.10937 c 0.76172,-1.33984 0.51172,-1.82812 2.3125,-3.32812 -3.9336,-2.97656 4.0039,-8.03906 -0.008,-12.60938 l 2.44921,-1.22656 -3.57031,-1.125 c 1.61719,-1.44141 7.62891,1.68359 6.82031,-4.51562 1.11719,0.14453 1.9961,-0.64454 3.42579,1.23046 0.47265,-1.23437 1.23046,-2.59765 2.61328,-3.6289 0.71093,-0.53516 0.76953,-1.53906 0.10937,-2.125 -2.05469,-1.82422 6.16016,-3.08203 3.09375,-9.46094 l -2.24219,1.09375 c 0.9375,-2.41797 -3.0625,-3.48828 -2.32812,-6.83203 -5.00781,3.51953 -3.89453,-3.62891 -6.79688,-6.67578 2.5586,0.76562 2.24219,-4.875 2.125,-6.90625 h 1.3086 c -2.53906,-1.36719 1.51562,-4.95703 1.01953,-8.25391 -10.52344,-0.8789 3.15234,-3.33594 6.98047,-5.54687 -3.22656,-1.78907 3.07031,-2.65625 0.0664,-4.60547 1.46485,0.25 2.55079,-0.0117 3.28516,-2.17578 0.55078,1.17578 1.77344,1.07812 3.55859,-0.13282 0.91016,-2.5664 3.44532,-7.23828 6.64454,-11.875 0.70312,-1.01562 0.82421,-2.29687 0.43359,-3.46484 -1.18359,-3.5625 0.52734,-11.04687 4.43359,-9.91016 -0.625,-11.21875 0.76172,-1.49609 4.47266,-6.85937 7.10937,3.75391 11.39844,-0.76953 12.55859,12.42578 -6.625,-1.16016 -13.47265,25.15625 -19.5625,20.72656 -3.63281,8.21485 -1.3789,10.69922 0.004,18.83203 0.86328,8.48829 -5.82813,6.47657 0.0898,13.41797 11.08594,-1.78125 10.54688,15.92969 18.375,4.72266 l 1.16407,2.32812 c 2.57812,-4.60546 10.60156,-2.46875 11.57031,-8.07031 l 1.17187,2.33985 c 0.74219,-1.55469 3.94141,-1.83985 4.63282,-4.60157 1.83984,2.05469 5.94921,1.46485 6.94921,-2.42968 -0.875,4.60156 6.14844,-0.47266 5.2461,1.93359 -2.78906,9.26953 12.85156,1.71094 11.82031,8.17578 h -9.22656 v 1.16406 h -0.90625 V 658.457 c -1.3711,-0.25781 -0.92188,5.20703 -2.05469,4.5 -0.76562,-0.47656 -1.75781,-0.27344 -2.04297,0.57813 -1.88281,5.67578 -4.92578,1.49609 -11.74219,2.98437 -0.86718,-3.16797 -9.25,0.91016 -13.92968,0.0586 v 2.32813 c -1.9961,-2.01563 -7.83985,5.1875 -2.17188,4.75781 v 1.91797 c -3.67969,3.53906 1.20313,8.92578 4.6875,5.19531 -0.27734,2.90625 -1.02344,17.96485 -3.66797,17.70703 -14.59765,-17.24218 -16.34765,-9.65625 -20.60937,8.15625 l 0.0234,-0.008 c -0.64063,4.05469 1.36718,8.19922 1.16406,12.61328 3.01172,-0.67968 2.48047,2.29297 6.23828,3.33594 -3.51953,2.35547 -6.90625,-4.63281 -8.41406,-0.39453 h 1.10547 c -0.44922,2.34766 -5.45704,5.39453 -4.32422,-0.26172 -2.67578,1.125 -3.4375,3.25781 -5.79297,5.25391 4.52734,0.92968 -1.39453,2.71093 -0.14453,6.3125 h -3.30469 v -1.16407 c -11.38281,4.77735 0.60937,-13.34765 -19.74219,-2.28906 l -1.16797,-1.2539 c -0.1289,1.96875 -5.91406,3.02734 -6.99218,5.86718 -8.74219,-3.10156 -8.71094,12.22657 -11.22657,3.50782 h -3.49218 v -4.66797 c -9.41016,-5.76563 -10.23047,1.01953 -15.16407,-1.3125 v 1.3125 c -1.88281,-0.0977 -4.32812,0.48047 -6.51172,-0.98047 h 0.94532 v -1.07813 h 1.09375 v -2.60156 c -0.92578,0.20703 -2.32813,-0.71484 -3.4961,1.17578 -0.47656,-1.25781 -1.07422,-2.7539 -3.41797,-2.2539 v -1.16407 c -1.21484,0.13672 -4.07031,0.30078 -1.05078,-2.23437 0.47266,-0.0664 -5.04297,-2.96094 -0.76953,-3.17578 -0.42578,-0.42188 -1.09375,-1.125 -2.48437,-2.42188 0.42578,-0.28515 0.78906,-1.22265 2.48437,-0.98437 0.1836,0.0859 -2.70703,-2.60547 -0.1289,-2.26172 1.16406,-2.21485 7.64843,-9.52344 7.89062,-10.40625 0.69141,4.14453 5.21875,-4.49219 -0.97656,-3.58985 v -1.16796 c -1.90625,0.80078 -1.41797,-2.65235 1.30469,-2.14063 -0.32032,-0.50781 -1.64844,-0.74609 -1.30469,-2.51172 h -2.4336 c 1,2.71485 -6.96484,-0.0469 -3.48828,4.52344 -0.42968,-0.27344 -0.9375,-1.78125 -2.15625,-0.004 0.58985,-6.58593 -3.63672,3.86719 -5.73437,-2.19531 -4.21485,-0.10156 -1,10.22266 -3.71875,12.74219 4.92969,2.95703 4.76953,13.82422 0.89453,17.17969 h 1.07812 c -0.24609,1.51562 -0.0273,2.70312 2.26172,3.42187 -0.26953,0.41797 -1.72265,0.89063 -0.0469,2.12891 h -4.45703 c 0.0156,2.98828 0.39062,3.5625 -1.16797,6.55468 -0.42578,-0.51171 -1.28906,-2.38671 -0.97266,-4.22656 h -1.35156 c 0.46094,1.70313 -1.79297,1.59375 0.24609,-1.10156 -1.29297,-1.41016 -6.11718,-1.3125 -8.32812,-1.22656 -1.55078,2.04687 1.40625,5.01562 -2.22266,5.90234 0.375,-5.58594 0.15235,-5.85156 -5.73437,-2.29297 v -2.42578 c -1.3086,2.51953 -7.75,0.47656 -7.1875,5.34375 1.91015,9.55469 -8.07813,9.28125 -3.09766,3.96094 h -1.14453 c 2.14453,-0.9961 3.48047,-5.26563 -1.23828,-4.58594 v -0.98437 c -1.28516,0.45703 -0.34766,7.25 -3.7461,7.90234 0.40235,1.47266 -1.04296,2.80078 -3.42578,2.32812 v 2.51172 c 1.34375,-0.19922 2.02735,0.46485 -0.89062,1.99219 v -2.17969 h -1.4336 c 0.40235,2.9336 -1.40234,4.36719 2.17579,5.67578 -0.34766,-0.10937 -2.44141,0.44141 -2.02344,2.23438 -3.61719,0.46875 -5.85938,-0.72266 -6.73047,-3.49219 -0.63281,0.0352 -1.32031,-0.30078 -2.42188,1.20703 l -1.25781,-1.35156 c 0.32031,0.94531 -0.35547,1.93359 -2.14062,2.46094 -15.33203,-3.03516 -1.53125,12.54297 -23.24219,12.37109 v 1.41797 c 1.21484,-0.0586 3.03125,0.39063 4.45703,2.07031 h -1.03516 v 1.17188 c -1.125,-1.25 -4.67187,-1.28516 -6.72656,-1.17188 v -1.16406 c -2.25,0.38281 -4.39844,-0.89844 -7.08594,-2.38672 v 1.23438 l -2.09375,-1.10157 c 2.61329,-1.58203 -1.5039,-1.30859 1.25,-4.57421 -13.74609,-4.51954 1.75,16.93359 -10.35937,11.48828 l 1.09766,-1.25391 c -1.80469,-0.38672 -4.08985,1.05859 -6.05469,-1.11719 v 1.11719 h -2.05469 v -3.40625 c -1.38672,-0.27734 -3.51953,1.09766 -1.27344,-2.17187 -2.74218,0.41406 -3.33203,1.1914 -6.80859,2.17187 0.26172,-2.19531 -2.25781,-0.18359 -4.74219,-2.36719 -0.33594,1.1211 -2.84375,1.53516 -4.68359,1.27735 v 1.27734 h 3.33594 v 2.21094 h -1.01172 c 0.16406,1.66015 -1.48047,0.32812 -3.60938,2.44922 1.75391,-1.875 3.86328,5.45312 3.79688,2.30078 l 2.26172,1.16406 c -0.0742,-3.22656 1.48437,1.80859 4.46484,2.19922 v 1.16406 h 1.08203 v 2.32422 h 4.53125 l -1.25,1.16797 c 1.83203,-0.42188 3.08594,1.07422 1.33984,3.42187 0.48829,-0.125 2.88282,0.1836 2.38282,2.32813 -0.0937,1.06641 -0.73438,14.08203 5.73047,11.53125 -0.125,0.71094 0.61328,2.20312 -1.29688,3.36328 h 1.17188 c -1.48438,1.59766 -0.98047,4.02734 -2.20313,6.91406 h 1.16406 c -0.25,1.86328 1.83594,4.88282 1.16407,7.69141 -1.21094,-2.11719 -2.21485,-4.77734 -3.30469,-8 -4.1211,3.32812 0.90625,11.95312 -4.75781,11.53516 -3.46875,14.27734 -13.52344,15.80859 -23.73047,6.83984 -11.60938,-3.04688 -35.67969,-11.07422 -33.91797,-16.13281 -1.36719,0.42968 -3.00391,2.41015 -4.84375,-0.0703 v 1.21875 h -3.5586 c 1.44141,0.79297 1.03907,1.84766 -0.85156,3.36329 0.40625,-2.52344 -2.98437,-1.3711 -4.69922,-3.4336 l -1.16406,2.33203 c -0.76562,-1.42187 -4.98828,0 -2.39844,3.78125 l 1.17578,-1.08593 c 0.10157,0.44531 -0.41015,2.50781 -2.33593,2.02734 v 1.19922 h 1.34765 c 0.54297,-2.4336 3.82422,-0.63672 -0.32031,3.48828 4.16406,0.94531 -3.1875,1.08594 -2.03906,4.57031 -3.39844,23.72266 -18.44922,26.09766 -19.48047,36.64844 13.88672,1.66797 -11.45313,20.52344 1.16406,21.82422 1.64453,-1.65235 5.45703,4.625 7.9961,2.47656 v 1.01563 c 3.68359,-2.88672 14.85546,4.01171 11.19921,8.14843 h 2.40235 c -0.25,0.75782 -1.3125,1.69532 -1.10938,3.3086 h -2.46875 c 1.28516,3.34765 3.57422,4.41406 6.03125,8.24609 10.14063,-12.19141 31.8086,3.34375 38.96875,-0.23047 8.62891,-11.54687 2.88672,2.75391 26.86719,-16 -8.31641,-9.19922 5.89844,-17.65234 13.76563,-21.98828 H 551.625 V 877 c 11.82812,-6.85156 28.69141,2.24609 27.83594,-17.17578 -2.53907,-6.83985 9.70703,-10 15.91797,-6.82422 v 2.46094 c 0.95703,-0.92969 2.50781,-2.04688 4.65625,-2.46094 v 2.32812 h 2.25781 v 2.39454 l 1.25781,-1.25782 c 10.25,11.61328 8.41406,-0.64843 13.90625,1.125 v -1.16406 h 2.14063 v 1.29297 c 4.07421,-2.09375 14.69921,-13.46484 18.27343,-7.22656 0.63282,-2.16016 3.14844,0.24218 4.66407,1.20312 -0.11719,-1.375 0.23437,-2.74609 3.17968,-2.41015 -0.67578,0.57031 -2.0039,1.92968 0.082,3.39843 0.27735,17.29297 30.0625,44.29688 31.27344,40.27344 6.66797,6.46875 33.22266,28.13672 19.46875,30.82422 -4.59375,15.52344 4.44531,9.77734 9.51953,0.0977 9.03907,-1.66016 3.87891,-10.15625 0.4961,-11.25391 -2.38282,-1.55859 -0.73828,-2.75781 1.90234,-7.17188 h -1.19922 c 2.63281,-4.4414 6.00781,1.23829 11.2461,0.1836 0.0742,14.15234 22.76562,-1.46875 -19.39454,-15.16406 13.2461,-11.17579 -15.80078,5.82031 -19.62109,-29.82032 -9.97266,-2.66406 -14.22266,-5.80859 -8.07422,-16.14062 -0.71484,0.15234 -2.67578,-0.10938 -2.33203,-2.24219 h -1.04687 c 0.33984,-0.23828 0.61328,-1.31641 2.14453,-1.0625 v -2.25781 c 4.33984,2.13281 8.79297,-5.42578 11.64062,0.125 -0.35156,-4.35547 0.53125,-0.89063 3.23438,-3.32031 0.26953,2.57031 0.26172,3.64843 -3.46485,5.51171 2.23047,1.86719 0.4336,5.4961 3.58203,8.24219 4.99219,-12.23437 9.71875,-4.29297 7.94532,4.50391 h 2.32812 v 1.24609 c 1.21875,-0.25 1.8125,0.46485 3.375,2.0586 h -3.51953 c 8.79688,11.00781 36.71875,22.44921 35.9375,27.67578 H 733.5 v 1.16797 h 2.51562 v -0.0899 c -0.0352,-0.52734 2.4375,3.60156 -0.12109,3.23828 0.26563,5.70313 -0.76562,10.07813 -1.16406,15.09766 h 1.16406 v 1.04687 h -1.16406 c -1.05078,4.36329 5.39844,1.33594 6.85547,6.82813 h -0.14844 c 0.64062,1.375 1.52734,4.32031 4.55469,3.60937 0.30468,1.41797 -0.92969,3.21094 1.34765,4.69532 -0.27734,-0.46485 5.63282,-3.27344 4.5625,0.87109 -6.94922,-1.08984 -5.05078,7.74609 3.33985,4.83984 v 1.13282 c 2.84765,-1.41407 6.63281,-2.40625 9.49609,1.15625 0.125,-3.76563 3.96484,1.23828 6.58203,2.15234 -5.6875,5.37891 -3,-3.39062 -7.83203,-0.17969 v -1.03906 c -25.16406,1.69531 -1.28125,5.79688 -8.29297,12.76172 2.07422,3.95703 3.98047,11.05078 5.87891,1.20703 1.97656,4.13281 5.64062,13.36328 6.8164,2.42969 v 2.1914 h 1.16016 v 2.25391 h 6.09375 c -0.0352,-2.39844 -4.42187,-2.99219 -3.58203,-7.09766 -10.63281,-10.23828 5.71875,3.05469 5.82422,-6.98437 -7.87891,5.68359 -4.1211,-9.40625 3.49219,-0.76953 2.27734,-16.60156 -19.34766,-8.13672 -11.64063,-17.48047 -6.80078,-2.32031 4.62109,-6.59766 3.39063,0.1875 1.14453,0.39844 1.76562,-0.77344 2.57421,-2.51172 -5.58593,-0.61719 -15.38671,-17.44922 -6.14453,-15.29297 0.8711,4.56641 3.44922,7.98047 8.32813,9.78516 0.58984,-2.60547 -4.42969,-1.63281 -3.49219,-5.66016 1.44141,1.54688 3.74219,4.04297 6.98438,4.55469 v -1.38281 c -1.91407,0.4375 -1.53125,-1.78516 -3.3711,-3.30469 h 1.94922 c -0.75781,3.23047 2.13672,2.71484 4.90625,0.77344 0.49219,-0.34375 0.33594,-1.11719 -0.25,-1.25391 -2.60937,-0.61719 -6.17187,-2.00391 -6.72656,-5.27344 9.19922,2.05078 4.0039,-5.07031 7.86719,-2.27343 0.29296,1.47656 6.51171,1.23437 3.83203,-1.13282 6.93359,-1.08203 11.99218,5.88672 16.76562,2.53907 0.60547,1.30859 -0.76172,2.07031 -2.09765,3.11718 -0.6836,0.53125 -0.30079,1.66797 0.5625,1.65625 4.95312,-0.0703 8.96093,-7.47265 14.93359,-10.32031 3.23437,-1.50781 8.78516,1.87891 8.8125,-2.9375 0.004,-0.56641 -0.38672,-1.06641 -0.9375,-1.20312 -4.42969,-1.07422 -10.23828,-3.66407 -9.97656,-9.28907 0.0156,-0.3789 -0.23047,-0.71484 -0.60938,-0.75781 -0.85156,-0.0937 -1.9414,-0.59766 -1.64844,-2.24609 -0.87109,0.21093 -2.375,-0.63672 -3.42578,1.01953 0.20703,-0.78906 -0.94922,-4.83203 2.25782,-4.25391 -0.0195,-0.69531 -0.32422,-1.26953 1.20703,-2.42187 0.082,0.57812 -2.64453,-3.6211 -0.0391,-3.31641 v -4.58594 c 10.98438,2.24219 1.08985,-9.92578 7.42579,-14.15625 -5.81641,2.01953 1.32421,-10.76953 0.92968,-2.07031 0.6875,0.11328 2.6836,-0.23828 2.42578,-2.32812 2.73047,1.51171 3.20313,-11.01563 1.36329,-5.39454 -0.80079,-1.20703 -5.29688,-7.51562 -0.76172,-7.65234 v 1.29688 c 5.41406,-3.27344 11.30078,-1.88282 2.42968,-7.97266 h 0.90625 v 0.14062 c 10.53907,0.26563 -2.41796,-1.83593 13.66407,-7.05468 v 1.00781 h 1.41797 v -2.73438 c 0,-0.67578 0.91015,-0.89453 1.21484,-0.28515 0.625,1.23828 1.31641,2.69922 1.95703,4.08594 -8.06641,4.09765 6.01563,7.16796 10.36719,1.42187 l 1.08203,3.50781 c 0.53125,-2.92968 8.53906,-7.33203 10.26953,-3.58203 h 1.28125 v -1.16015 c 2.33594,0.33984 1.00391,-4.20313 4.3125,-4.53125 v 2.26953 c 18.30859,-11.54297 9.76563,-3.55469 19.59766,-14.78125 2.17578,2.4414 2.02343,-0.96875 5.48047,-2.16797 -0.87891,6.42578 5.29296,-4.33203 7.07812,0.0937 0.0273,4.49609 -9.11328,2.84765 -3.57422,7.58203 -12.68359,0.65234 -7.01953,2.67187 0.71485,6.76953 -0.61329,-0.0117 -0.73829,0.0352 -1.875,1.11328 l -1.11329,-1.28125 c -0.74609,1.66016 1.60157,3.07031 0.0898,4.69922 -3.85156,-4.33203 -2.08985,-0.61719 -4.78906,2.47266 0.64453,0.28515 1.69921,1.49609 1.29687,3.24218 -11.625,6.20313 6.52734,5.64454 5.75,9.27344 8.80859,-2.51172 14.59375,7.73828 23.98047,10.39844 2.17969,1.37109 9.25,-1.42188 9.08984,3.32812 3.88282,-1.1914 7.76953,6.42188 10.08203,10.06641 -0.32812,-1.14844 -4.19531,4.73047 -0.82421,4.69141 v -1.16797 c 5.40625,1.3789 14.0039,-4.74219 13.47265,1.16797 14.76172,-2.01953 -0.0508,15.70312 15.94922,9.19531 0.1875,0.34766 1.39844,0.72656 1.13281,2.28906 34.49604,22.50781 29.48044,-24.78515 39.99214,-4.84375 h -1.4765 c 8.5859,7.22656 -10.5274,5.52735 10.8828,8.19531 l -1.336,-1.33593 1.1993,-0.96485 c -8.9844,-5.80859 4.2851,-4.55468 -2.3516,-13.70312 2.3281,-2.69531 -0.1992,-6.81641 1.8086,-9.61328 0.8516,-1.1875 0.3711,-2.85938 -1.0469,-3.21094 -9.2695,-2.32422 -6.3906,-5.58984 -15.4805,-10.00391 l 0.051,-0.10547 c -23.37886,-8.3125 -10.42964,-18.27343 -25.4062,-25.16406 -2.82031,6.75391 -5.51562,-6.26562 -0.85156,-10.14453 -2.41016,-0.22656 -0.76953,-12.16016 2.04297,-7.70312 1.71093,-2.11719 4.32031,-3.48438 5.76562,-6.79688 l 0.99219,1.16406 c 5.36719,-7.72656 -9.24609,-5.61328 -4.37891,-9.03125 1.17969,-0.82422 1.2461,-2.52343 0.0937,-3.38672 -2.30859,-1.73046 -5.27343,-3.46484 -7.49218,-5.5 -1.00782,-0.92968 -2.4961,-1.03515 -3.6836,-0.34765 -7.27734,4.1914 -6.02344,-8.92188 -11.69922,-3.85547 -0.3164,-2.53516 -0.043,-6.58203 2.38672,-8.99609 -6.6289,0.61328 -3.76172,-12.58594 -3.48047,-15.875 h -1 c 3.28516,-6.85157 4.41407,0.32421 8.83203,2.63281 3.91016,-2.19922 1.64844,-8.71094 -2.11718,-10.54297 0.97265,-0.54297 2.48437,-1.26563 4.45312,-0.99219 -0.34765,-12.57031 0.17969,-2.69922 4.39453,-9.65625 4.3086,-3.17578 2.76563,-9.36719 5.22266,-6.91015 4.58203,6.14843 5.60547,-7.98829 10.37891,-4.53516 0.69531,0.5 1.63281,0.35937 2.11328,-0.35156 1.67187,-2.47657 8.56639,0.22265 13.23439,2.11718 1.3164,0.53516 2.6992,-0.44531 2.75,-1.87109 0.1992,-5.33984 12.332,5.88672 11.0508,-3.86719 h 1.0078 c -0.047,-0.51172 0.2734,-1.1875 -0.8984,-2.24218 h 4.4492 c -2.8203,-3.91407 1.2305,-2.86719 5.6953,-2.34766 v -2.32813 h 2.1328 c -1.6367,-9.64453 8.2188,0.21875 14.9453,-3.25 -1.7422,-6.57031 11.1172,-5.02734 10.0782,-12.71875"
         fill-opacity="1"
         fill-rule="nonzero"
         id="path57" />
    </g>
    <path
       fill="#ffffff"
       d="m 440.62232,597.92782 c -1.33593,-0.65235 -0.50781,-1.91797 -2.39062,-3.5586 -0.10547,0.32422 -1.5,0.82422 -1.26172,2.36719 h -4.58203 v 1.34766 c 7.13672,-0.75781 3.92578,7.57812 10.72656,-0.1875 -0.40625,0.004 -1.15625,-0.008 -2.49219,0.0312"
       fill-opacity="1"
       fill-rule="nonzero"
       id="path58" />
    <path
       fill="#ffffff"
       d="m 449.84889,595.59969 c -3.64844,-2.80078 -2.77735,1.67188 2.375,2.48438 v -2.51172 c -0.41797,0 -1.07032,-0.0117 -2.375,0.0273"
       fill-opacity="1"
       fill-rule="nonzero"
       id="path59" />
    <path
       fill="#ffffff"
       d="m 419.73561,601.32235 v 1.16406 h -2.32813 v 2.57422 c 0.65625,-0.15234 1.96484,-1.49219 3.59375,-1.22266 -0.0703,-0.83203 -0.23047,-1.22265 1.39063,-2.51562 h -2.65625"
       fill-opacity="1"
       fill-rule="nonzero"
       id="path60" />
    <path
       fill="#ffffff"
       d="m 381.64186,250.57235 c 1.18359,1.02734 2.72265,4.16797 5.72265,3.52344 -0.67578,3.22656 1.08985,8.51172 5.73828,8.07812 -0.5,3.28516 1.39844,2.08985 3.67578,4.69141 0.043,-0.69922 -0.38671,-1.24219 0.98047,-2.31641 v 1.03125 c 2.19141,-0.42187 9.85938,-2.25 11.5,1.22656 1.73438,-1.39843 9.7461,-3.69921 9.22657,0.0703 1.14843,-1.86719 5.03515,-1.08203 5.78906,-4.64063 4.49609,4.15235 9.02344,-3.73437 7.04687,-10.58594 -3.08203,1.45313 -2.75,-3.51562 0,-0.92187 -2.87109,-6.72266 0.83985,-3.30859 1.1836,-7.27344 -3.40235,2.63281 -3.63282,0.55469 -2.44532,-4.36328 v 1.01172 l -2.32812,-1.16016 c 0.79297,1.84375 -4.62891,6.15235 -4.47266,1.16016 -1.59765,0.44531 -3.02734,2.35937 -5.71093,2.38672 0.27343,-1.88281 2.22656,-3.11328 -0.22657,-4.78906 -3.91797,14.04296 -1.125,-5.73438 -4.48047,-1.00391 l -1.33984,-1.32031 c -5.19922,11.5039 -1.76562,-9.13672 -6.74609,2.10937 -1.62891,0.4961 -2.98438,-2.59375 -5.64844,2.44922 v -0.9375 c -2.68359,1.26172 1.08984,-4.70703 0,-6.72656 1.01562,0.30859 2.84766,-0.12891 3.48828,-2.51563 -3.25391,1.71485 3.82813,-8.90625 -4.96875,-7.99609 0.53906,0.39062 1.78516,1.84766 2.39844,3.49219 h -1.10547 c 0.98047,3.20312 -2.13672,7.05078 -2.14063,1.05078 l -1.23437,1.09375 v -4.37891 h -0.1875 c 0.36328,0.65235 -0.625,1.94141 -2.25391,-0.21484 v 3.55469 c -1.86718,-0.85938 -3.65234,-2.19532 -0.0625,1.22265 -2.82422,1.33594 -2.37109,1.66406 -4.59375,-2.44922 v 2.38282 h -0.89453 v -1.21485 c -5.24219,2.50391 20.25,10.5586 3.06641,8.11328 0.8164,0.58594 1.94922,1.9375 3.60547,3.51953 -1.125,4.01954 -11.96875,-8.25 -12.60938,-1.00781 1.44531,0.4375 6.06641,-1.44922 5.75,2.26172 2.51172,-0.16406 0.0664,2.78125 0,5.89453 l 1.08985,-1.16797 c 0.28906,1.82813 -6.21094,5.58985 -8.02735,3.10547 -0.48437,0.89453 -2.28906,3.90235 1.21485,3.55469"
       fill-opacity="1"
       fill-rule="nonzero"
       id="path61" />
    <path
       fill="#ffffff"
       d="m 381.69264,411.1661 c 0.85156,1.76953 2.60156,0.0625 4.37109,2.12109 -2.21875,0.69141 -3.31641,-1.07812 -6.25781,-1.24609 z m -8.12891,5.57031 c -5.90234,6.04688 2.92188,-0.30859 -0.0273,5.89844 h 2.02343 c -2.90625,1.19922 -1.62109,1.21094 0.94922,1.16016 -2.21875,0.35937 -3.625,2.0664 0.51953,0.0547 v 2.26953 c 2.49219,-3.16015 5.26172,2.03125 8.08985,-1.1875 1.02344,1.1875 2.60547,1.53907 5.65625,-1 v 0.96094 c 28.6914,-1.16015 11.93359,-10.83984 28.65234,-25.03906 v 2.20312 h 1.26953 c 0.0352,-5.72656 -2.52343,-1.17578 -3.09765,-3.875 3.60547,-1.41015 1.11718,-3.46875 0.76562,-7.86718 h -3.40625 c 0.26172,-2.70703 0.85938,-1.63282 -3.45703,-4.80078 v 1.3789 c -7.36719,-1.67578 -8.41797,0.6836 -14.99219,3.38672 0.73438,0.57813 2.25782,2.60547 4.46875,2.55078 -1.66015,-0.30078 -5.01953,5.08985 -5.89453,3.96875 -2.24219,-3.37109 -11.57812,-9 -8.82031,-0.35547 -0.49609,1.54688 -7.38281,6.22266 -2.32031,7.78907 v 2.39062 c 9.57422,-4.23828 -0.97266,4.48828 -6.0625,4.33594 l 1.25,1.08203 h -1.08985 c -0.44922,2.26172 -11.62109,2.07031 -1.14453,4.66797 -0.83203,0.008 -1.80078,-0.0156 -3.33203,0.0273"
       fill-opacity="1"
       fill-rule="nonzero"
       id="path62" />
    <path
       fill="#ffffff"
       d="m 507.00514,570.9161 c -8.59375,-3.00391 -11.66016,10.86719 -4.16407,16.375 0.35938,-4.62891 6.32422,-10.44922 4.16407,-16.375"
       fill-opacity="1"
       fill-rule="nonzero"
       id="path63" />
    <path
       fill="#ffffff"
       d="m 505.13795,592.72469 -0.93359,-0.91797 h 1.07812 c -0.22656,-0.91015 -2.85156,-1.61328 -2.44141,-3.82421 -0.50781,0.32421 -0.75,1.65234 -2.51562,1.30859 v 1.07422 c -1.89063,-0.58985 -6.98438,3.34765 -9.17578,1.12109 -0.66016,1.39453 -2.65625,12.02735 3.28906,10.57031 -2.69922,0.72266 -0.85937,5.8086 -4.58594,5.55079 1.96485,2.05468 -1.04297,9.38671 6.07032,8.26562 -0.40235,-1.56641 0.52343,-4.67969 3.39843,-2.26172 5.84766,3.4375 2.92578,-13.04687 7.01172,-16.24219 h -1.10937 c 0.27343,-0.87109 1.78125,-2.68359 -0.0859,-4.64453"
       fill-opacity="1"
       fill-rule="nonzero"
       id="path64" />
    <path
       fill="#ffffff"
       d="m 556.93873,630.62313 c -19.40625,5.70313 -16.39844,-4.35937 -22.98047,-0.0859 -2.27344,-6.03515 -6.4414,4.78125 -3.27734,5.01953 12.72656,4.89454 13.93359,9.9961 25.25781,13.67579 -1.40625,-1.92188 4.79297,-5.19141 1.30859,-5.98829 l 1.16407,-1.07812 c -4.32422,-0.98828 3.21875,-8.52344 3.26172,-12.80078 -0.98047,0.58594 -2.64063,1.57422 -4.73438,1.25781"
       fill-opacity="1"
       fill-rule="nonzero"
       id="path65" />
    <path
       fill="#ffffff"
       d="m 421.97779,415.8536 v 2.43359 c 1.72657,0.33203 6.53125,-1.72265 0,-2.43359"
       fill-opacity="1"
       fill-rule="nonzero"
       id="path66" />
    <path
       fill="#ffffff"
       d="m 435.3567,456.25204 h 2.42187 v -1.35157 h -3.8164 l 1.39453,1.35157"
       fill-opacity="1"
       fill-rule="nonzero"
       id="path67" />
    <path
       fill="#ffffff"
       d="m 457.95826,350.27547 c -0.53515,0.31641 -0.84375,1.57032 -2.72656,1.28516 l 2.72656,2.57422 v -3.85938"
       fill-opacity="1"
       fill-rule="nonzero"
       id="path68" />
    <path
       fill="#ffffff"
       d="m 472.67701,343.59188 c -0.0937,9.06641 4.98828,-15.75 1.16797,-2.42187 h -2.32812 c 0.0351,0.625 -0.30469,1.3164 1.16015,2.42187"
       fill-opacity="1"
       fill-rule="nonzero"
       id="path69" />
    <path
       fill="#ffffff"
       d="m 430.05982,354.78329 c -0.36328,-0.38282 -1.21875,-0.58594 -0.98046,-2.25782 -1.375,1.34766 -2.82032,4.30079 -2.60157,7.41407 0.25782,-1.09766 3.58985,-6.17578 3.58203,-1.11719 1.42188,-0.49219 0.64454,-4.04688 3.60938,-3.73438 -0.51563,-1.32031 1.28516,-1.46875 1.07812,-3.66015 -0.46484,1.28515 -2.78515,1.38672 -4.6875,1.23047 v 2.125"
       fill-opacity="1"
       fill-rule="nonzero"
       id="path70" />
    <path
       fill="#ffffff"
       d="m 429.07936,406.84969 c 1.21093,-3.6875 -5.63282,-1.71875 -2.53125,1.13672 0.13281,-0.0586 1.36718,-0.61328 2.53125,-1.13672"
       fill-opacity="1"
       fill-rule="nonzero"
       id="path71" />
    <path
       fill="#ffffff"
       d="m 427.64186,363.25594 v 2.53907 l 2.22265,-1.19141 c -1.94922,6.40625 2.37891,2.94922 2.64063,-2.69141 -0.38282,0.37891 -0.98438,1.16016 -2.34766,2.27344 v -2.19141 l -2.51562,1.26172"
       fill-opacity="1"
       fill-rule="nonzero"
       id="path72" />
    <path
       fill="#ffffff"
       d="m 429.74732,437.28719 h -0.58203 v -0.0547 h 0.58203 z m 4.50391,-72.10937 0.0234,1.07031 h -1.02344 v 0.1875 c 4.16406,0.25391 -1.54687,5.05469 -4.82031,9.03906 0.16406,0.10938 0.0312,0.0312 -0.60156,-0.85547 -2.89844,0.0742 1.64453,0.19532 -1.46875,2.60157 h 1.28125 v 1 h 0.1875 v -1 h 1.25 v -1.10157 l 1.87109,1.86719 c 0.71875,-1.80078 1.51562,-2.93359 4.32031,-3.48437 -0.99219,0.875 -1.59765,1.67187 -3.48828,3.42187 h 1.375 v 0.97656 c -2.76562,-0.69531 -5.21875,2.35938 -4.65625,5.97657 4.3125,-5.55469 5.375,-2.86719 2.32813,1.04297 0.48046,0.008 4.27734,-0.25391 4.58593,2.13671 h -1.16406 c 0.0898,1.41797 -2.02344,4.42969 -4.58594,4.58594 0.16016,0.77344 -0.1875,2.60156 -2.33203,2.24219 v 1.25 h -1.16015 v 4.75781 h 1.34765 c -0.41015,-4.85547 1.34375,-1.61719 3.4961,1.29688 -0.80469,-1.51953 1.67187,-6.01172 2.14062,-1.23828 l 2.25781,-1.16016 v 1.10156 h 1.35157 c -0.39844,-3.54687 2.66015,2.19141 4.39843,-1.03125 0.008,0.45313 -0.51953,2.01172 -2.25781,1.63281 v 0.94532 c -2.27344,-3.2461 -6.37109,7.0664 -1.21875,7.23828 -4.16406,3.82031 1.11328,-1.46485 2.38281,3.21484 h -2.24218 v 1.16797 h -1.16407 c 0.77344,4.15234 -2.125,0.68359 -2.34765,4.77344 h 1.16797 v 2.26172 h 1.05859 c 0.12891,-0.10157 -2.55469,2.29297 -2.03516,-0.32813 -0.42187,0.83203 -2.20703,1.92188 -1.93359,-0.80469 h -2.24219 v -1.10937 c -1.82812,0.75 -17.02734,4.22656 -6.9375,4.83594 2.26563,-3.76563 2.63672,2.40234 -0.21094,3.1914 2.57422,2.46094 -1.26562,1.56641 -3.35156,4.60938 l -1.16797,-1.25 c -2.94531,3.51562 -5.71484,-2.9375 -8.30468,3.72656 h 3.625 v 0.90625 h -1.16407 c -0.45703,3.98438 7.59766,-3.11719 5.75,3.67578 h 3.3711 c -2.88282,4.61719 7.0039,2.73047 9.92968,2.09375 -2.59375,2.60547 -10.20703,7.48047 -13.50781,2.15625 h -3.73828 c 1.78516,1.05078 1.24609,2.78125 -2.19922,1.08203 0.9375,3.28907 -10,6.41407 -12.55469,7.09766 h 2.16407 v 2.32812 h 2.51562 v -1.16015 h 0.97656 v 1.29297 c 4.26172,-5.42188 7.08594,0.90625 11.64844,1.0039 0.53906,-4.35156 8.36328,-6.17968 10.2461,0.0274 2.875,-1.46485 4.42187,-0.73828 8.25,0 0.28125,-4.85938 2.32031,0.74609 5.5625,0 1.29687,4.34375 26.16796,1.85156 17.18359,-2.22657 -1.42188,1.29297 -6.65234,-2.51171 -4.58203,-3.60156 1.13672,1.61719 5.67187,-0.60547 2.71484,-1.33984 0.41016,-1.04688 2.87891,-0.85156 4.52344,-0.82422 v -1.25 c 8.76562,-2.77344 8.92969,-12.75391 -5.75,-12.37891 3.67187,-6.45703 6.17578,-4.63281 -1.16797,-11.7539 0.28906,0.0508 0.71484,-0.0469 1.20313,-0.043 1.17968,0.008 2.09765,-1.05469 1.96875,-2.22266 -0.96094,-8.76172 -4.47266,-14.33984 -5.59375,-25.53125 l -0.10547,0.21094 c 0.3789,-3.72266 -15.85157,-7 -7.28907,-5.33984 2.08985,0.39453 2.31641,-1.07422 5.19532,-2.4375 -5.82422,-1.19922 -2.95313,-2.28516 3.37109,-2.07813 -0.91797,-2.15625 6.33984,-2.66797 2.30469,-5.82422 0.35156,-0.20703 0.73437,-1.32031 2.28515,-1.07422 7.07422,-6.2539 -6.71875,-8.3164 -13.74609,-5.9375 v -2.13672 h 1 v -0.1875 c -1.67578,0.24219 -1,-1.65234 2.33984,-2.05859 -1.36328,-2.50781 16.16016,-6.34766 5.81641,-8.26562 v -1.15235 c -0.89062,0.78516 -5.07812,2.04688 -4.65625,-1.3164 l -1.25,1.32421 -0.81641,-0.99609 c 1.61719,0.22656 -0.76171,-1.5625 -2.62109,-1.28125 0.22656,0.85547 -0.41797,2.08594 -1.29687,3.60938 h 1.16406 c -0.3086,2.3789 -4.98438,-1.73829 -2.38281,1.05078 -1.60938,0.4375 -2.23829,0.34765 -1.04297,4.39453 -0.72266,-0.14453 0.0586,-1.10547 -2.07813,-0.98047 0.48438,-2.43359 -3.92187,-1.41016 -3.67578,2.35547"
       fill-opacity="1"
       fill-rule="nonzero"
       id="path73" />
    <path
       fill="#ffffff"
       d="m 528.66529,394.18563 c -8.92578,8.39453 8.23438,-4.26562 12.75391,2.57031 2.14453,-2.95703 1.04687,-4.45312 2.03125,-6.9375 0.46484,-1.16406 -0.73828,-2.29687 -1.88281,-1.77734 -4.25391,1.9375 -7,7.21094 -12.90235,6.14453"
       fill-opacity="1"
       fill-rule="nonzero"
       id="path74" />
    <path
       fill="#ffffff"
       d="m 540.25904,420.76766 v -4.6914 c -0.75781,0.0469 -1.21093,0.26953 -2.42578,-1.27735 l -1.09375,1.23438 -1.25781,-1.32813 v 1.3711 h -1.23047 v 3.61328 h 2.39844 v 1.07812 h 3.60937"
       fill-opacity="1"
       fill-rule="nonzero"
       id="path75" />
    <path
       fill="#ffffff"
       d="m 543.04811,413.70907 c -0.67969,0.52344 -2.29297,2.00781 -0.0742,3.55469 -3.02344,1.91796 0.53906,4.12109 3.53515,3.43359 v 1.04687 c -2.37109,-0.27734 0.75782,1.57813 2.65625,1.28125 -4.03125,-2.16015 4.90235,-2.73046 0.99219,-5.76562 6.28906,-4.91406 0.34375,-4.11328 3.59375,-7 h -1.17187 l 1.16406,-1.16797 c -1.5625,0.3125 -3.3711,-0.96484 -5.02735,1.35547 0.91407,-0.10938 4.48047,1.83594 -1.04687,2.07031 -1.16016,4.96875 -0.69922,-0.60156 -2.32422,-1.16406 0.14063,0.74609 -0.15625,2.65234 -2.29687,2.35547"
       fill-opacity="1"
       fill-rule="nonzero"
       id="path76" />
    <path
       fill="#ffffff"
       d="m 540.68482,424.00594 c -1.41406,2.88282 9.12891,5.00782 2.51563,1.16016 v -1.16016 h -2.51563"
       fill-opacity="1"
       fill-rule="nonzero"
       id="path77" />
    <path
       fill="#ffffff"
       d="m 546.50904,425.25985 c -0.0273,0.80859 -0.14843,1.17578 1.34766,2.49219 v -1.31641 h 1.16797 v -1.26953 c -0.79297,0.0586 -1.21485,0.24219 -2.51563,-1.28906 v 1.38281"
       fill-opacity="1"
       fill-rule="nonzero"
       id="path78" />
    <path
       fill="#ffffff"
       d="m 653.64576,629.21297 c -0.93359,-2.41015 -11.48437,-9.76562 -15.28515,-6.78906 5.63671,1.59375 11.70312,5.88672 16.39843,10.53125 -0.17187,-1.1289 0.58985,-2.27734 -1.11328,-3.74219"
       fill-opacity="1"
       fill-rule="nonzero"
       id="path79" />
    <path
       fill="#ffffff"
       d="m 594.24732,253.21297 v 1.31641 c 0.14454,-0.39453 1.65625,-0.82422 1.35157,-2.38672 4.17187,1.82813 2.8789,-7.68359 0.99218,-3.52344 -3.44531,-0.30078 -1.28515,0.0781 -3.54296,3.42969 l 1.19921,1.16406"
       fill-opacity="1"
       fill-rule="nonzero"
       id="path80" />
    <g
       fill="#000000"
       fill-opacity="1"
       id="g85"
       transform="translate(-131.94018,-298.70109)">
      <g
         transform="translate(510.14227,962.26653)"
         id="g84">
        <g
           id="g83">
          <path
             d="M 12.265625,-102.9375 H 50.5625 c 10.570312,0 18.375,2.14844 23.40625,6.4375 5.039062,4.292969 7.5625,11.125 7.5625,20.5 0,5.886719 -1,10.601562 -3,14.140625 -1.992188,3.542969 -5.179688,6.460937 -9.5625,8.75 5.1875,1.992187 9.050781,4.933594 11.59375,8.828125 2.539062,3.886719 3.8125,9.074219 3.8125,15.5625 C 84.375,-9.570312 73.601562,0 52.0625,0 H 12.265625 Z M 50.5625,-58.34375 c 5.59375,0 9.734375,-1.34375 12.421875,-4.03125 2.695313,-2.695312 4.046875,-6.789062 4.046875,-12.28125 0,-5.488281 -1.402344,-9.503906 -4.203125,-12.046875 -2.792969,-2.539063 -7.132813,-3.8125 -13.015625,-3.8125 H 26.625 v 32.171875 z m 0.90625,45.78125 c 6.082031,0 10.671875,-1.242188 13.765625,-3.734375 3.09375,-2.5 4.640625,-6.691406 4.640625,-12.578125 0,-11.375 -6.339844,-17.0625 -19.015625,-17.0625 H 26.625 v 33.375 z m 0,0"
             id="path82" />
        </g>
      </g>
    </g>
    <g
       fill="#000000"
       fill-opacity="1"
       id="g88"
       transform="translate(-131.94018,-298.70109)">
      <g
         transform="translate(696.54787,962.26653)"
         id="g87">
        <g
           id="g86">
          <path
             d="m 49.21875,1.640625 c -10.273438,0 -18.402344,-1.84375 -24.390625,-5.53125 -5.980469,-3.6875 -10.292969,-9.34375 -12.9375,-16.96875 -2.648437,-7.632813 -3.96875,-17.6875 -3.96875,-30.15625 0,-12.363281 1.320313,-22.460937 3.96875,-30.296875 2.644531,-7.832031 6.984375,-13.664062 13.015625,-17.5 6.039062,-3.84375 14.144531,-5.76563 24.3125,-5.76563 10.175781,0 18.28125,1.92188 24.3125,5.76563 6.03125,3.835938 10.367188,9.640625 13.015625,17.421875 2.644531,7.78125 3.96875,17.960937 3.96875,30.53125 0,12.460937 -1.296875,22.480469 -3.890625,30.0625 -2.59375,7.585937 -6.886719,13.21875 -12.875,16.90625 -5.980469,3.6875 -14.15625,5.53125 -24.53125,5.53125 z m 0,-12.71875 c 6.976562,0 12.363281,-1.316406 16.15625,-3.953125 3.789062,-2.644531 6.457031,-6.8125 8,-12.5 1.550781,-5.6875 2.328125,-13.460938 2.328125,-23.328125 0,-9.875 -0.796875,-17.78125 -2.390625,-23.71875 C 71.71875,-80.515625 69,-84.90625 65.15625,-87.75 61.3125,-90.59375 56,-92.015625 49.21875,-92.015625 c -6.78125,0 -12.09375,1.421875 -15.9375,4.265625 -3.835938,2.84375 -6.554688,7.210938 -8.15625,13.09375 -1.59375,5.886719 -2.390625,13.765625 -2.390625,23.640625 0,9.679687 0.769531,17.359375 2.3125,23.046875 1.550781,5.679688 4.222656,9.914062 8.015625,12.703125 3.789062,2.792969 9.175781,4.1875 16.15625,4.1875 z m 0,0"
             id="path85" />
        </g>
      </g>
    </g>
    <g
       fill="#000000"
       fill-opacity="1"
       id="g91"
       transform="translate(-131.94018,-298.70109)">
      <g
         transform="translate(889.53594,962.26653)"
         id="g90">
        <g
           id="g89">
          <path
             d="M 3.296875,-102.9375 H 18.25 l 21.84375,90.375 h 7.9375 L 69.875,-102.9375 H 84.828125 L 58.796875,0 h -29.625 z m 0,0"
             id="path88" />
        </g>
      </g>
    </g>
    <g
       fill="#000000"
       fill-opacity="1"
       id="g94"
       transform="translate(-131.94018,-298.70109)">
      <g
         transform="translate(1072.2015,962.26653)"
         id="g93">
        <g
           id="g92">
          <path
             d="M 26.625,-90.359375 V -58.34375 H 67.03125 V -45.9375 H 26.625 v 33.375 H 76 V 0 H 12.265625 V -102.9375 H 76 v 12.578125 z m 0,0"
             id="path91" />
        </g>
      </g>
    </g>
    <g
       clip-path="url(#632d1cb16b)"
       id="g95"
       transform="translate(-131.94018,-298.70109)">
      <path
         fill="#000000"
         d="m 1145.3594,771.47266 v 16.29296 c 0,2.30469 -1.8711,4.17188 -4.1719,4.17188 h -16.293 c -2.3047,0 -4.1718,-1.86719 -4.1718,-4.17188 v -16.29296 c 0,-2.30079 1.8671,-4.16797 4.1718,-4.16797 h 16.293 c 2.3008,-0.004 4.1719,1.86718 4.1719,4.16797 z m -767.39065,-4.17188 h -16.29297 c -2.30469,0 -4.17187,1.87109 -4.17187,4.17188 v 16.29296 c 0,2.30469 1.86718,4.17188 4.17187,4.17188 h 16.29297 c 2.30469,0 4.17187,-1.86719 4.17187,-4.17188 v -16.29296 c 0,-2.30079 -1.86718,-4.17188 -4.17187,-4.17188 z M 762.83594,406.32422 v -16.29297 c 0,-2.30469 -1.86719,-4.17188 -4.17188,-4.17188 h -16.29297 c -2.30078,0 -4.17187,1.86719 -4.17187,4.17188 v 16.29297 c 0,2.30469 1.87109,4.17187 4.17187,4.17187 h 16.29297 c 2.30469,0 4.17188,-1.86718 4.17188,-4.17187 z m 0,0"
         fill-opacity="1"
         fill-rule="nonzero"
         id="path94" />
    </g>
    <g
       clip-path="url(#02f87826ae)"
       id="g96"
       transform="translate(-131.94018,-298.70109)">
      <path
         fill="#ffffff"
         d="m 1141.1875,764.08984 h -5.2891 C 1127.9336,563.80859 966.35156,402.62109 766.05078,395.14062 v -5.10937 c 0,-4.07422 -3.3125,-7.38672 -7.38672,-7.38672 h -16.29297 c -4.07031,0 -7.38281,3.3125 -7.38281,7.38672 v 5.19141 c -96.64453,4.07812 -187.42578,43.98828 -255.91797,112.63671 -68.5039,68.66016 -108.20703,159.55079 -112.04687,256.23047 h -5.34766 c -4.07422,0 -7.38672,3.3125 -7.38672,7.38282 v 16.29296 c 0,4.07422 3.3125,7.38672 7.38672,7.38672 h 16.29297 c 4.07031,0 7.38672,-3.3125 7.38672,-7.38672 v -16.29296 c 0,-4.07032 -3.31641,-7.38282 -7.38672,-7.38282 h -4.53516 C 381.34375,568.32422 539.25,410.04297 734.98828,401.63672 v 4.6875 c 0,4.07422 3.3125,7.38672 7.38281,7.38672 h 16.29297 c 4.07422,0 7.38672,-3.3125 7.38672,-7.38672 v -4.77735 c 196.75391,7.47266 355.48442,165.8086 363.43752,362.54297 h -4.5938 c -4.0742,0 -7.3867,3.3125 -7.3867,7.38282 v 16.29296 c 0,4.07422 3.3125,7.38672 7.3867,7.38672 h 16.293 c 4.0703,0 7.3828,-3.3125 7.3828,-7.38672 v -16.29296 c 0,-4.07032 -3.3125,-7.38282 -7.3828,-7.38282 z m -763.3125,6.42578 c 0.57812,0 1.05078,0.47266 1.05078,1.05079 v 16.19921 c 0,0.52735 -0.42969,0.95704 -0.95703,0.95704 h -16.29297 c -0.52734,0 -0.95703,-0.42969 -0.95703,-0.95704 v -16.29296 c 0,-0.52735 0.42969,-0.95704 0.95703,-0.95704 z M 742.46484,407.28125 c -0.57812,0 -1.05078,-0.47266 -1.05078,-1.05078 v -16.19922 c 0,-0.52734 0.42969,-0.95703 0.95703,-0.95703 h 16.29297 c 0.52735,0 0.95703,0.42969 0.95703,0.95703 v 16.19922 c 0,0.58203 -0.46875,1.05078 -1.04687,1.05078 z m 399.67966,380.48437 c 0,0.52735 -0.4297,0.95704 -0.957,0.95704 h -16.293 c -0.5273,0 -0.957,-0.42969 -0.957,-0.95704 v -16.19921 c 0,-0.57813 0.4727,-1.05079 1.0469,-1.05079 h 16.2031 c 0.5273,0 0.957,0.42969 0.957,0.95704 z m 0,0"
         fill-opacity="1"
         fill-rule="nonzero"
         id="path95" />
    </g>
    <g
       clip-path="url(#2c60209fe7)"
       id="g97"
       transform="translate(-131.94018,-298.70109)">
      <path
         fill="#000000"
         d="m 1145.3594,771.47266 v 16.29296 c 0,2.30469 -1.8711,4.17188 -4.1719,4.17188 h -16.293 c -2.3047,0 -4.1718,-1.86719 -4.1718,-4.17188 v -16.29296 c 0,-2.30079 1.8671,-4.16797 4.1718,-4.16797 h 16.293 c 2.3008,-0.004 4.1719,1.86718 4.1719,4.16797 z m -767.39065,-4.17188 h -16.29297 c -2.30469,0 -4.17187,1.87109 -4.17187,4.17188 v 16.29296 c 0,2.30469 1.86718,4.17188 4.17187,4.17188 h 16.29297 c 2.30469,0 4.17187,-1.86719 4.17187,-4.17188 v -16.29296 c 0,-2.30079 -1.86718,-4.17188 -4.17187,-4.17188 z M 762.83594,406.32422 v -16.29297 c 0,-2.30469 -1.86719,-4.17188 -4.17188,-4.17188 h -16.29297 c -2.30078,0 -4.17187,1.86719 -4.17187,4.17188 v 16.29297 c 0,2.30469 1.87109,4.17187 4.17187,4.17187 h 16.29297 c 2.30469,0 4.17188,-1.86718 4.17188,-4.17187 z m 0,0"
         fill-opacity="1"
         fill-rule="nonzero"
         id="path96" />
    </g>
    <g
       clip-path="url(#5261a18b6e)"
       id="g98"
       transform="translate(-131.94018,-298.70109)">
      <path
         fill="#ffffff"
         d="m 1141.1875,764.08984 h -5.2891 C 1127.9336,563.80859 966.35156,402.62109 766.05078,395.14062 v -5.10937 c 0,-4.07422 -3.3125,-7.38672 -7.38672,-7.38672 h -16.29297 c -4.07031,0 -7.38281,3.3125 -7.38281,7.38672 v 5.19141 c -96.64453,4.07812 -187.42578,43.98828 -255.91797,112.63671 -68.5039,68.66016 -108.20703,159.55079 -112.04687,256.23047 h -5.34766 c -4.07422,0 -7.38672,3.3125 -7.38672,7.38282 v 16.29296 c 0,4.07422 3.3125,7.38672 7.38672,7.38672 h 16.29297 c 4.07031,0 7.38672,-3.3125 7.38672,-7.38672 v -16.29296 c 0,-4.07032 -3.31641,-7.38282 -7.38672,-7.38282 h -4.53516 C 381.34375,568.32422 539.25,410.04297 734.98828,401.63672 v 4.6875 c 0,4.07422 3.3125,7.38672 7.38281,7.38672 h 16.29297 c 4.07422,0 7.38672,-3.3125 7.38672,-7.38672 v -4.77735 c 196.75391,7.47266 355.48442,165.8086 363.43752,362.54297 h -4.5938 c -4.0742,0 -7.3867,3.3125 -7.3867,7.38282 v 16.29296 c 0,4.07422 3.3125,7.38672 7.3867,7.38672 h 16.293 c 4.0703,0 7.3828,-3.3125 7.3828,-7.38672 v -16.29296 c 0,-4.07032 -3.3125,-7.38282 -7.3828,-7.38282 z m -763.3125,6.42578 c 0.57812,0 1.05078,0.47266 1.05078,1.05079 v 16.19921 c 0,0.52735 -0.42969,0.95704 -0.95703,0.95704 h -16.29297 c -0.52734,0 -0.95703,-0.42969 -0.95703,-0.95704 v -16.29296 c 0,-0.52735 0.42969,-0.95704 0.95703,-0.95704 z M 742.46484,407.28125 c -0.57812,0 -1.05078,-0.47266 -1.05078,-1.05078 v -16.19922 c 0,-0.52734 0.42969,-0.95703 0.95703,-0.95703 h 16.29297 c 0.52735,0 0.95703,0.42969 0.95703,0.95703 v 16.19922 c 0,0.58203 -0.46875,1.05078 -1.04687,1.05078 z m 399.67966,380.48437 c 0,0.52735 -0.4297,0.95704 -0.957,0.95704 h -16.293 c -0.5273,0 -0.957,-0.42969 -0.957,-0.95704 v -16.19921 c 0,-0.57813 0.4727,-1.05079 1.0469,-1.05079 h 16.2031 c 0.5273,0 0.957,0.42969 0.957,0.95704 z m 0,0"
         fill-opacity="1"
         fill-rule="nonzero"
         id="path97" />
    </g>
    <g
       clip-path="url(#a1ba1cac0e)"
       id="g99"
       transform="translate(-131.94018,-298.70109)">
      <path
         fill="#000000"
         d="m 1145.3594,771.47266 v 16.29296 c 0,2.30469 -1.8711,4.17188 -4.1719,4.17188 h -16.293 c -2.3047,0 -4.1718,-1.86719 -4.1718,-4.17188 v -16.29296 c 0,-2.30079 1.8671,-4.16797 4.1718,-4.16797 h 16.293 c 2.3008,-0.004 4.1719,1.86718 4.1719,4.16797 z m -767.39065,-4.17188 h -16.29297 c -2.30469,0 -4.17187,1.87109 -4.17187,4.17188 v 16.29296 c 0,2.30469 1.86718,4.17188 4.17187,4.17188 h 16.29297 c 2.30469,0 4.17187,-1.86719 4.17187,-4.17188 v -16.29296 c 0,-2.30079 -1.86718,-4.17188 -4.17187,-4.17188 z M 762.83594,406.32422 v -16.29297 c 0,-2.30469 -1.86719,-4.17188 -4.17188,-4.17188 h -16.29297 c -2.30078,0 -4.17187,1.86719 -4.17187,4.17188 v 16.29297 c 0,2.30469 1.87109,4.17187 4.17187,4.17187 h 16.29297 c 2.30469,0 4.17188,-1.86718 4.17188,-4.17187 z m 0,0"
         fill-opacity="1"
         fill-rule="nonzero"
         id="path98" />
    </g>
    <g
       clip-path="url(#da26d17143)"
       id="g100"
       transform="translate(-131.94018,-298.70109)">
      <path
         fill="#ffffff"
         d="m 1141.1875,764.08984 h -5.2891 C 1127.9336,563.80859 966.35156,402.62109 766.05078,395.14062 v -5.10937 c 0,-4.07422 -3.3125,-7.38672 -7.38672,-7.38672 h -16.29297 c -4.07031,0 -7.38281,3.3125 -7.38281,7.38672 v 5.19141 c -96.64453,4.07812 -187.42578,43.98828 -255.91797,112.63671 -68.5039,68.66016 -108.20703,159.55079 -112.04687,256.23047 h -5.34766 c -4.07422,0 -7.38672,3.3125 -7.38672,7.38282 v 16.29296 c 0,4.07422 3.3125,7.38672 7.38672,7.38672 h 16.29297 c 4.07031,0 7.38672,-3.3125 7.38672,-7.38672 v -16.29296 c 0,-4.07032 -3.31641,-7.38282 -7.38672,-7.38282 h -4.53516 C 381.34375,568.32422 539.25,410.04297 734.98828,401.63672 v 4.6875 c 0,4.07422 3.3125,7.38672 7.38281,7.38672 h 16.29297 c 4.07422,0 7.38672,-3.3125 7.38672,-7.38672 v -4.77735 c 196.75391,7.47266 355.48442,165.8086 363.43752,362.54297 h -4.5938 c -4.0742,0 -7.3867,3.3125 -7.3867,7.38282 v 16.29296 c 0,4.07422 3.3125,7.38672 7.3867,7.38672 h 16.293 c 4.0703,0 7.3828,-3.3125 7.3828,-7.38672 v -16.29296 c 0,-4.07032 -3.3125,-7.38282 -7.3828,-7.38282 z m -763.3125,6.42578 c 0.57812,0 1.05078,0.47266 1.05078,1.05079 v 16.19921 c 0,0.52735 -0.42969,0.95704 -0.95703,0.95704 h -16.29297 c -0.52734,0 -0.95703,-0.42969 -0.95703,-0.95704 v -16.29296 c 0,-0.52735 0.42969,-0.95704 0.95703,-0.95704 z M 742.46484,407.28125 c -0.57812,0 -1.05078,-0.47266 -1.05078,-1.05078 v -16.19922 c 0,-0.52734 0.42969,-0.95703 0.95703,-0.95703 h 16.29297 c 0.52735,0 0.95703,0.42969 0.95703,0.95703 v 16.19922 c 0,0.58203 -0.46875,1.05078 -1.04687,1.05078 z m 399.67966,380.48437 c 0,0.52735 -0.4297,0.95704 -0.957,0.95704 h -16.293 c -0.5273,0 -0.957,-0.42969 -0.957,-0.95704 v -16.19921 c 0,-0.57813 0.4727,-1.05079 1.0469,-1.05079 h 16.2031 c 0.5273,0 0.957,0.42969 0.957,0.95704 z m 0,0"
         fill-opacity="1"
         fill-rule="nonzero"
         id="path99" />
    </g>
    <g
       clip-path="url(#fcede0cb27)"
       id="g101"
       transform="translate(-131.94018,-298.70109)">
      <path
         fill="#000000"
         d="m 1145.3594,771.47266 v 16.29296 c 0,2.30469 -1.8711,4.17188 -4.1719,4.17188 h -16.293 c -2.3047,0 -4.1718,-1.86719 -4.1718,-4.17188 v -16.29296 c 0,-2.30079 1.8671,-4.16797 4.1718,-4.16797 h 16.293 c 2.3008,-0.004 4.1719,1.86718 4.1719,4.16797 z m -767.39065,-4.17188 h -16.29297 c -2.30469,0 -4.17187,1.87109 -4.17187,4.17188 v 16.29296 c 0,2.30469 1.86718,4.17188 4.17187,4.17188 h 16.29297 c 2.30469,0 4.17187,-1.86719 4.17187,-4.17188 v -16.29296 c 0,-2.30079 -1.86718,-4.17188 -4.17187,-4.17188 z M 762.83594,406.32422 v -16.29297 c 0,-2.30469 -1.86719,-4.17188 -4.17188,-4.17188 h -16.29297 c -2.30078,0 -4.17187,1.86719 -4.17187,4.17188 v 16.29297 c 0,2.30469 1.87109,4.17187 4.17187,4.17187 h 16.29297 c 2.30469,0 4.17188,-1.86718 4.17188,-4.17187 z m 0,0"
         fill-opacity="1"
         fill-rule="nonzero"
         id="path100" />
    </g>
    <g
       clip-path="url(#6d7f2f5016)"
       id="g102"
       transform="translate(-131.94018,-298.70109)">
      <path
         fill="#ffffff"
         d="m 1141.1875,764.08984 h -5.2891 C 1127.9336,563.80859 966.35156,402.62109 766.05078,395.14062 v -5.10937 c 0,-4.07422 -3.3125,-7.38672 -7.38672,-7.38672 h -16.29297 c -4.07031,0 -7.38281,3.3125 -7.38281,7.38672 v 5.19141 c -96.64453,4.07812 -187.42578,43.98828 -255.91797,112.63671 -68.5039,68.66016 -108.20703,159.55079 -112.04687,256.23047 h -5.34766 c -4.07422,0 -7.38672,3.3125 -7.38672,7.38282 v 16.29296 c 0,4.07422 3.3125,7.38672 7.38672,7.38672 h 16.29297 c 4.07031,0 7.38672,-3.3125 7.38672,-7.38672 v -16.29296 c 0,-4.07032 -3.31641,-7.38282 -7.38672,-7.38282 h -4.53516 C 381.34375,568.32422 539.25,410.04297 734.98828,401.63672 v 4.6875 c 0,4.07422 3.3125,7.38672 7.38281,7.38672 h 16.29297 c 4.07422,0 7.38672,-3.3125 7.38672,-7.38672 v -4.77735 c 196.75391,7.47266 355.48442,165.8086 363.43752,362.54297 h -4.5938 c -4.0742,0 -7.3867,3.3125 -7.3867,7.38282 v 16.29296 c 0,4.07422 3.3125,7.38672 7.3867,7.38672 h 16.293 c 4.0703,0 7.3828,-3.3125 7.3828,-7.38672 v -16.29296 c 0,-4.07032 -3.3125,-7.38282 -7.3828,-7.38282 z m -763.3125,6.42578 c 0.57812,0 1.05078,0.47266 1.05078,1.05079 v 16.19921 c 0,0.52735 -0.42969,0.95704 -0.95703,0.95704 h -16.29297 c -0.52734,0 -0.95703,-0.42969 -0.95703,-0.95704 v -16.29296 c 0,-0.52735 0.42969,-0.95704 0.95703,-0.95704 z M 742.46484,407.28125 c -0.57812,0 -1.05078,-0.47266 -1.05078,-1.05078 v -16.19922 c 0,-0.52734 0.42969,-0.95703 0.95703,-0.95703 h 16.29297 c 0.52735,0 0.95703,0.42969 0.95703,0.95703 v 16.19922 c 0,0.58203 -0.46875,1.05078 -1.04687,1.05078 z m 399.67966,380.48437 c 0,0.52735 -0.4297,0.95704 -0.957,0.95704 h -16.293 c -0.5273,0 -0.957,-0.42969 -0.957,-0.95704 v -16.19921 c 0,-0.57813 0.4727,-1.05079 1.0469,-1.05079 h 16.2031 c 0.5273,0 0.957,0.42969 0.957,0.95704 z m 0,0"
         fill-opacity="1"
         fill-rule="nonzero"
         id="path101" />
    </g>
    <g
       clip-path="url(#0d08e3b191)"
       id="g103"
       transform="translate(-131.94018,-298.70109)">
      <path
         fill="#000000"
         d="m 1145.3594,771.47266 v 16.29296 c 0,2.30469 -1.8711,4.17188 -4.1719,4.17188 h -16.293 c -2.3047,0 -4.1718,-1.86719 -4.1718,-4.17188 v -16.29296 c 0,-2.30079 1.8671,-4.16797 4.1718,-4.16797 h 16.293 c 2.3008,-0.004 4.1719,1.86718 4.1719,4.16797 z m -767.39065,-4.17188 h -16.29297 c -2.30469,0 -4.17187,1.87109 -4.17187,4.17188 v 16.29296 c 0,2.30469 1.86718,4.17188 4.17187,4.17188 h 16.29297 c 2.30469,0 4.17187,-1.86719 4.17187,-4.17188 v -16.29296 c 0,-2.30079 -1.86718,-4.17188 -4.17187,-4.17188 z M 762.83594,406.32422 v -16.29297 c 0,-2.30469 -1.86719,-4.17188 -4.17188,-4.17188 h -16.29297 c -2.30078,0 -4.17187,1.86719 -4.17187,4.17188 v 16.29297 c 0,2.30469 1.87109,4.17187 4.17187,4.17187 h 16.29297 c 2.30469,0 4.17188,-1.86718 4.17188,-4.17187 z m 0,0"
         fill-opacity="1"
         fill-rule="nonzero"
         id="path102" />
    </g>
    <g
       clip-path="url(#af2ad0ef3a)"
       id="g104"
       transform="translate(-131.94018,-298.70109)">
      <path
         fill="#ffffff"
         d="m 1141.1875,764.08984 h -5.2891 C 1127.9336,563.80859 966.35156,402.62109 766.05078,395.14062 v -5.10937 c 0,-4.07422 -3.3125,-7.38672 -7.38672,-7.38672 h -16.29297 c -4.07031,0 -7.38281,3.3125 -7.38281,7.38672 v 5.19141 c -96.64453,4.07812 -187.42578,43.98828 -255.91797,112.63671 -68.5039,68.66016 -108.20703,159.55079 -112.04687,256.23047 h -5.34766 c -4.07422,0 -7.38672,3.3125 -7.38672,7.38282 v 16.29296 c 0,4.07422 3.3125,7.38672 7.38672,7.38672 h 16.29297 c 4.07031,0 7.38672,-3.3125 7.38672,-7.38672 v -16.29296 c 0,-4.07032 -3.31641,-7.38282 -7.38672,-7.38282 h -4.53516 C 381.34375,568.32422 539.25,410.04297 734.98828,401.63672 v 4.6875 c 0,4.07422 3.3125,7.38672 7.38281,7.38672 h 16.29297 c 4.07422,0 7.38672,-3.3125 7.38672,-7.38672 v -4.77735 c 196.75391,7.47266 355.48442,165.8086 363.43752,362.54297 h -4.5938 c -4.0742,0 -7.3867,3.3125 -7.3867,7.38282 v 16.29296 c 0,4.07422 3.3125,7.38672 7.3867,7.38672 h 16.293 c 4.0703,0 7.3828,-3.3125 7.3828,-7.38672 v -16.29296 c 0,-4.07032 -3.3125,-7.38282 -7.3828,-7.38282 z m -763.3125,6.42578 c 0.57812,0 1.05078,0.47266 1.05078,1.05079 v 16.19921 c 0,0.52735 -0.42969,0.95704 -0.95703,0.95704 h -16.29297 c -0.52734,0 -0.95703,-0.42969 -0.95703,-0.95704 v -16.29296 c 0,-0.52735 0.42969,-0.95704 0.95703,-0.95704 z M 742.46484,407.28125 c -0.57812,0 -1.05078,-0.47266 -1.05078,-1.05078 v -16.19922 c 0,-0.52734 0.42969,-0.95703 0.95703,-0.95703 h 16.29297 c 0.52735,0 0.95703,0.42969 0.95703,0.95703 v 16.19922 c 0,0.58203 -0.46875,1.05078 -1.04687,1.05078 z m 399.67966,380.48437 c 0,0.52735 -0.4297,0.95704 -0.957,0.95704 h -16.293 c -0.5273,0 -0.957,-0.42969 -0.957,-0.95704 v -16.19921 c 0,-0.57813 0.4727,-1.05079 1.0469,-1.05079 h 16.2031 c 0.5273,0 0.957,0.42969 0.957,0.95704 z m 0,0"
         fill-opacity="1"
         fill-rule="nonzero"
         id="path103" />
    </g>
    <g
       clip-path="url(#2fd75f59dc)"
       id="g112"
       transform="translate(-131.94018,-298.70109)">
      <g
         clip-path="url(#303d643541)"
         id="g111">
        <g
           clip-path="url(#95272f392c)"
           id="g110">
          <g
             transform="translate(372,725)"
             id="g109">
            <g
               clip-path="url(#fa3ef3d28c)"
               id="g108">
              <g
                 clip-path="url(#c0ab909953)"
                 id="g107">
                <g
                   clip-path="url(#8d6c3480ff)"
                   id="g106">
                  <g
                     clip-path="url(#dfe8e307a6)"
                     id="g105">
                    <path
                       fill="#ffffff"
                       d="M -0.996094,3.761719 2.386719,-1.535156 5.546875,0.484375 2.164062,5.78125 Z m 0,0"
                       fill-opacity="1"
                       fill-rule="nonzero"
                       id="path104" />
                  </g>
                </g>
              </g>
            </g>
          </g>
        </g>
      </g>
    </g>
    <g
       clip-path="url(#21cb8f4731)"
       id="g115"
       transform="translate(-131.94018,-298.70109)">
      <g
         clip-path="url(#a6701e090a)"
         id="g114">
        <g
           clip-path="url(#94a9a2be00)"
           id="g113">
          <path
             fill="#000000"
             d="m 222.87891,1028.4688 157.6289,-309.78911 72.21485,207.51562 -112.51172,27.55078 40.19922,-234.48047 -49.32813,241.24219 39.14844,53.48439 -70.22266,-29.57814 80.36719,-265.13672 -87.09375,265.24219 z m 0,0"
             fill-opacity="1"
             fill-rule="evenodd"
             id="path112" />
        </g>
      </g>
    </g>
    <g
       clip-path="url(#9d795d42f5)"
       id="g118"
       transform="translate(-131.94018,-298.70109)">
      <g
         clip-path="url(#580f3246df)"
         id="g117">
        <g
           clip-path="url(#27176da93c)"
           id="g116">
          <path
             fill="#000000"
             d="m 375.69922,1010.1758 0.11719,-58.25393 -33.72657,6.67969 z m 0,0"
             fill-opacity="1"
             fill-rule="evenodd"
             id="path115" />
        </g>
      </g>
    </g>
  </g>
</svg>
